<svg id="svg" version="1.1" xmlns="http://www.w3.org/2000/svg" xmlns:xlink="http://www.w3.org/1999/xlink" width="400" height="400" viewBox="0, 0, 400,400"><g id="svgg"><path id="path0" d="M206.055 5.158 C 205.724 5.367,205.675 5.561,205.931 5.652 C 206.163 5.733,204.519 5.848,202.277 5.907 C 200.034 5.967,197.300 6.170,196.200 6.360 L 194.200 6.706 196.000 6.806 L 197.800 6.907 195.800 7.189 C 194.700 7.345,193.740 7.321,193.667 7.136 C 193.502 6.720,185.318 6.685,185.133 7.100 C 185.060 7.265,184.010 7.294,182.800 7.165 L 180.600 6.930 182.600 6.825 L 184.600 6.720 183.002 6.346 C 180.681 5.803,174.573 6.063,174.700 6.700 C 174.819 7.296,174.423 7.332,173.600 6.800 C 173.091 6.471,173.110 6.411,173.724 6.406 C 174.122 6.403,174.336 6.220,174.200 6.000 C 173.708 5.204,168.479 5.521,167.600 6.400 C 166.453 7.547,166.523 7.711,169.409 10.654 C 170.844 12.118,171.969 13.348,171.909 13.388 C 171.849 13.428,171.080 13.886,170.200 14.405 C 165.757 17.028,159.976 22.738,158.168 26.290 C 157.746 27.121,157.265 27.860,157.100 27.933 C 156.935 28.007,156.800 28.226,156.800 28.421 C 156.800 28.617,156.335 29.793,155.766 31.037 C 155.197 32.280,154.821 33.636,154.929 34.049 C 155.037 34.463,154.962 34.700,154.762 34.576 C 154.245 34.257,153.511 36.396,153.698 37.679 C 153.785 38.272,153.727 38.678,153.570 38.581 C 153.412 38.484,153.175 38.688,153.042 39.035 C 152.638 40.088,152.770 41.200,153.300 41.199 C 153.667 41.198,153.765 41.994,153.668 44.199 C 153.596 45.850,153.371 47.200,153.168 47.200 C 152.966 47.200,152.797 47.515,152.794 47.900 C 152.789 48.498,152.731 48.513,152.400 48.000 C 152.136 47.591,152.023 48.612,152.046 51.200 C 152.068 53.711,152.188 54.661,152.400 54.000 C 152.675 53.143,152.726 53.117,152.760 53.820 C 152.782 54.271,152.966 54.811,153.170 55.020 C 153.618 55.480,153.925 61.602,153.500 61.601 C 153.335 61.600,153.200 60.250,153.200 58.600 C 153.200 56.867,153.031 55.600,152.800 55.600 C 152.287 55.600,152.319 60.362,152.850 63.000 C 153.555 66.510,153.692 67.985,153.379 68.702 C 153.211 69.086,153.102 69.535,153.136 69.700 C 153.171 69.865,153.052 70.000,152.871 70.000 C 152.269 70.000,150.714 73.636,150.899 74.607 C 151.007 75.169,150.900 75.528,150.641 75.480 C 150.159 75.393,149.786 81.264,150.204 82.353 C 150.413 82.898,150.494 82.903,150.848 82.389 C 151.151 81.948,151.185 82.037,150.986 82.743 C 150.644 83.950,151.140 88.000,151.629 88.000 C 151.833 88.000,152.014 87.685,152.032 87.300 C 152.049 86.908,152.150 86.813,152.260 87.085 C 152.368 87.352,152.288 87.871,152.082 88.239 C 151.512 89.258,152.510 92.484,155.041 97.800 C 156.531 100.928,157.105 101.863,158.912 104.099 C 159.400 104.703,160.086 106.143,160.436 107.299 C 160.786 108.454,161.236 109.371,161.436 109.335 C 161.636 109.299,161.832 109.839,161.871 110.535 C 161.940 111.788,165.742 119.277,166.438 119.533 C 166.637 119.607,166.800 119.844,166.800 120.060 C 166.800 120.276,167.295 121.116,167.900 121.926 C 168.505 122.736,169.180 123.650,169.400 123.955 C 170.083 124.904,177.008 131.753,178.189 132.648 L 179.309 133.496 175.755 133.790 C 172.008 134.099,171.211 134.312,171.991 134.795 C 172.253 134.957,171.552 135.001,170.434 134.894 C 168.565 134.714,168.400 134.767,168.400 135.549 C 168.400 136.017,168.226 136.400,168.013 136.400 C 167.799 136.400,167.729 136.130,167.855 135.800 C 168.100 135.163,166.424 134.910,165.838 135.495 C 165.676 135.657,165.331 135.798,165.072 135.809 C 164.056 135.849,159.778 136.904,159.400 137.208 C 159.180 137.384,158.325 137.655,157.500 137.809 C 156.675 137.963,156.000 138.249,156.000 138.445 C 156.000 138.640,155.742 138.800,155.426 138.800 C 155.110 138.800,154.345 139.008,153.726 139.261 C 153.107 139.515,152.384 139.768,152.120 139.823 C 150.582 140.144,146.397 142.472,146.643 142.870 C 146.816 143.149,146.745 143.213,146.458 143.036 C 145.746 142.596,144.310 143.189,144.554 143.823 C 144.670 144.126,144.593 144.481,144.383 144.611 C 144.172 144.741,144.000 144.644,144.000 144.397 C 144.000 143.217,140.457 145.365,140.366 146.600 C 140.321 147.219,140.268 147.251,140.132 146.741 C 139.954 146.070,137.600 146.805,137.600 147.532 C 137.600 147.682,137.079 148.035,136.443 148.317 C 135.806 148.599,134.807 149.273,134.222 149.815 C 133.637 150.357,133.073 150.800,132.968 150.800 C 131.684 150.800,121.389 160.769,117.702 165.583 C 116.768 166.802,115.810 168.032,115.572 168.315 C 111.913 172.680,108.000 179.203,108.000 180.939 C 108.000 181.302,107.834 181.600,107.632 181.600 C 107.429 181.600,107.136 182.179,106.981 182.887 C 106.825 183.595,106.550 184.450,106.369 184.787 C 105.800 185.844,104.922 188.084,103.776 191.400 C 103.168 193.160,102.520 194.771,102.335 194.980 C 102.151 195.189,102.000 195.612,102.000 195.920 C 102.000 196.227,101.694 197.124,101.320 197.913 C 100.821 198.964,100.767 199.389,101.120 199.507 C 101.384 199.595,101.597 199.967,101.594 200.333 C 101.589 200.900,101.532 200.912,101.216 200.412 C 100.775 199.715,100.762 199.728,99.834 201.865 C 99.435 202.781,99.231 203.726,99.379 203.965 C 99.526 204.204,99.501 204.400,99.321 204.400 C 98.860 204.400,97.451 207.829,95.132 214.600 C 94.686 215.902,93.773 218.126,93.162 219.400 C 92.951 219.840,92.738 220.769,92.689 221.465 C 92.640 222.162,92.528 222.659,92.439 222.572 C 92.238 222.372,91.205 224.330,91.186 224.946 C 91.179 225.196,90.825 226.120,90.400 227.000 C 89.975 227.880,89.621 228.904,89.614 229.276 C 89.606 229.648,89.432 230.056,89.227 230.183 C 89.022 230.310,88.633 231.401,88.364 232.607 C 88.094 233.813,87.736 234.800,87.568 234.800 C 87.401 234.800,87.138 235.385,86.986 236.100 C 86.833 236.815,86.533 237.617,86.319 237.882 C 86.106 238.148,86.038 238.537,86.168 238.748 C 86.298 238.959,86.250 239.192,86.060 239.266 C 85.871 239.340,85.051 241.200,84.239 243.400 C 83.427 245.600,82.501 247.967,82.182 248.660 C 81.862 249.354,81.600 250.173,81.600 250.480 C 81.600 250.788,81.442 251.211,81.248 251.420 C 80.972 251.719,80.085 254.006,79.784 255.200 C 79.756 255.310,79.523 255.907,79.266 256.526 C 79.010 257.145,78.800 257.910,78.800 258.226 C 78.800 258.542,78.620 258.800,78.400 258.800 C 78.180 258.800,78.000 259.088,78.000 259.440 C 78.000 259.791,77.757 260.646,77.460 261.340 C 76.231 264.206,75.198 267.079,74.957 268.300 C 74.816 269.015,74.543 269.600,74.350 269.600 C 74.158 269.600,73.999 269.915,73.998 270.300 C 73.996 270.685,73.720 271.528,73.383 272.174 C 72.865 273.167,72.549 274.177,71.873 277.000 C 71.821 277.220,71.658 277.590,71.513 277.823 C 71.367 278.056,71.123 279.226,70.971 280.423 C 70.818 281.620,70.528 282.810,70.326 283.066 C 69.770 283.770,70.091 288.221,70.689 288.104 C 71.038 288.035,71.153 288.683,71.089 290.363 C 71.040 291.658,70.875 292.517,70.722 292.270 C 69.837 290.848,69.868 295.380,70.775 300.200 C 71.580 304.473,73.512 309.304,74.300 309.011 C 74.575 308.909,74.800 308.999,74.800 309.213 C 74.800 309.426,74.605 309.600,74.367 309.600 C 74.128 309.600,74.016 309.825,74.117 310.100 C 74.218 310.375,74.496 310.557,74.736 310.505 C 74.975 310.452,75.075 310.659,74.958 310.964 C 74.774 311.445,75.979 314.147,77.204 316.000 C 77.422 316.330,77.780 317.106,77.999 317.724 C 78.219 318.342,78.534 318.765,78.699 318.663 C 78.865 318.562,79.019 318.956,79.042 319.539 C 79.080 320.498,82.117 326.123,83.395 327.600 C 86.242 330.892,90.938 335.459,92.753 336.701 L 95.000 338.239 95.116 341.758 C 95.244 345.619,95.618 346.538,97.939 348.694 C 99.616 350.252,100.771 350.689,101.244 349.943 C 101.515 349.515,101.589 349.543,101.594 350.073 C 101.598 350.525,102.755 351.293,105.100 352.403 C 107.025 353.314,109.915 354.681,111.522 355.440 C 113.129 356.199,114.614 356.715,114.822 356.586 C 115.030 356.458,115.200 356.543,115.200 356.776 C 115.200 357.009,115.470 357.200,115.800 357.200 C 116.130 357.200,116.400 357.380,116.400 357.600 C 116.400 357.820,116.590 358.000,116.822 358.000 C 117.054 358.000,118.089 358.384,119.122 358.853 C 120.155 359.323,122.350 360.319,124.000 361.067 C 125.650 361.815,127.307 362.598,127.681 362.806 C 128.115 363.046,128.451 363.041,128.605 362.792 C 128.738 362.576,129.152 362.413,129.524 362.428 C 130.077 362.451,130.058 362.512,129.415 362.763 C 128.790 363.008,129.559 363.519,133.215 365.287 C 142.342 369.702,146.383 371.600,146.652 371.600 C 146.803 371.600,148.260 372.268,149.888 373.083 C 152.368 374.326,152.910 374.472,153.219 373.983 C 153.527 373.496,153.589 373.513,153.594 374.089 C 153.598 374.557,154.686 375.292,157.000 376.389 C 168.604 381.888,167.784 381.571,168.135 380.700 C 168.246 380.425,168.351 380.624,168.368 381.143 C 168.391 381.810,168.575 382.018,169.000 381.855 C 169.330 381.729,169.600 381.799,169.600 382.013 C 169.600 382.226,169.870 382.400,170.200 382.400 C 170.530 382.400,170.800 382.580,170.800 382.800 C 170.800 383.020,171.013 383.200,171.274 383.200 C 171.763 383.200,172.128 383.363,179.222 386.737 C 181.544 387.842,183.929 388.867,184.522 389.016 C 185.115 389.165,185.600 389.447,185.600 389.643 C 185.600 389.840,185.791 390.000,186.025 390.000 C 186.470 390.000,188.320 390.827,195.092 394.051 C 197.343 395.123,199.458 396.000,199.792 396.000 C 200.127 396.000,200.400 396.166,200.400 396.368 C 200.400 396.571,200.940 396.855,201.600 397.000 C 202.260 397.145,202.800 397.421,202.800 397.614 C 202.800 398.666,205.763 398.481,208.153 397.279 C 209.499 396.602,211.288 395.771,212.129 395.433 C 212.970 395.094,213.572 394.678,213.468 394.508 C 213.364 394.339,213.838 394.179,214.522 394.153 C 215.205 394.128,215.832 393.903,215.916 393.653 C 215.999 393.404,216.263 393.200,216.503 393.200 C 216.743 393.200,218.393 392.494,220.170 391.631 C 221.946 390.768,225.650 388.991,228.400 387.683 C 231.150 386.375,234.957 384.561,236.861 383.652 C 238.764 382.743,240.519 382.000,240.761 382.000 C 241.002 382.000,241.200 381.834,241.200 381.632 C 241.200 381.429,241.740 381.145,242.400 381.000 C 243.060 380.855,243.600 380.585,243.600 380.400 C 243.600 380.215,244.140 379.945,244.800 379.800 C 246.126 379.509,246.388 378.939,245.300 378.713 C 244.726 378.594,244.759 378.524,245.486 378.325 C 245.974 378.191,246.357 378.199,246.339 378.341 C 246.236 379.129,246.552 379.139,248.014 378.393 C 248.902 377.940,249.523 377.398,249.393 377.189 C 249.263 376.979,249.438 376.917,249.785 377.050 C 250.129 377.182,251.714 376.661,253.306 375.892 C 262.663 371.374,265.621 370.000,265.988 370.000 C 266.215 370.000,266.400 369.820,266.400 369.600 C 266.400 369.380,266.667 369.200,266.994 369.200 C 267.321 369.200,270.966 367.557,275.094 365.548 C 287.205 359.656,288.182 359.200,288.704 359.200 C 288.977 359.200,289.200 359.020,289.200 358.800 C 289.200 358.580,289.471 358.400,289.801 358.400 C 290.132 358.400,291.075 358.040,291.896 357.600 C 292.716 357.160,293.616 356.800,293.894 356.800 C 294.172 356.800,294.400 356.634,294.400 356.432 C 294.400 356.229,294.940 355.945,295.600 355.800 C 296.260 355.655,296.800 355.391,296.800 355.213 C 296.800 355.035,297.025 354.914,297.300 354.944 C 297.575 354.975,299.330 354.260,301.200 353.355 C 303.070 352.451,305.105 351.505,305.723 351.254 C 306.340 351.002,306.736 350.619,306.602 350.403 C 306.460 350.174,306.631 350.114,307.009 350.259 C 307.730 350.536,311.322 347.321,310.955 346.727 C 310.839 346.540,310.622 346.463,310.472 346.557 C 310.323 346.650,310.289 344.988,310.398 342.863 L 310.596 339.000 310.713 342.700 C 310.860 347.342,311.600 347.614,311.600 343.027 C 311.600 340.005,311.683 339.627,312.400 339.400 C 312.840 339.260,313.200 338.978,313.200 338.773 C 313.200 338.568,313.397 338.400,313.637 338.400 C 313.877 338.400,314.486 338.085,314.991 337.700 C 315.495 337.315,316.333 336.730,316.852 336.400 C 318.137 335.584,325.200 328.738,325.200 328.309 C 325.200 328.120,325.613 327.519,326.118 326.975 C 326.623 326.430,327.568 324.953,328.218 323.692 C 328.868 322.432,329.511 321.310,329.646 321.200 C 330.266 320.696,330.460 319.083,329.943 318.733 C 329.534 318.457,329.589 318.395,330.166 318.483 C 330.749 318.572,331.014 318.265,331.273 317.200 C 331.460 316.430,331.798 315.474,332.025 315.076 C 332.252 314.677,332.630 312.877,332.866 311.076 C 333.102 309.274,333.475 307.412,333.694 306.938 C 333.914 306.464,333.973 305.879,333.824 305.638 C 333.675 305.397,333.719 305.200,333.922 305.200 C 334.487 305.200,335.708 300.914,335.515 299.603 C 335.421 298.965,335.492 298.533,335.672 298.645 C 335.853 298.756,336.026 298.612,336.058 298.324 C 336.520 294.169,336.629 288.386,336.302 285.400 C 336.205 284.520,336.098 283.474,336.063 283.076 C 336.028 282.678,335.853 282.444,335.672 282.555 C 335.492 282.667,335.412 282.272,335.495 281.679 C 335.696 280.240,335.034 277.379,334.524 277.480 C 334.301 277.524,334.199 277.138,334.298 276.622 C 334.397 276.106,334.217 275.080,333.898 274.342 C 332.878 271.977,331.645 268.633,331.374 267.496 C 331.230 266.889,330.951 266.294,330.756 266.173 C 330.560 266.052,330.394 265.648,330.386 265.276 C 330.379 264.904,330.025 263.880,329.600 263.000 C 329.175 262.120,328.821 261.223,328.814 261.008 C 328.800 260.620,327.587 257.381,326.540 254.940 C 326.243 254.246,326.000 253.391,326.000 253.040 C 326.000 252.688,325.857 252.400,325.683 252.400 C 325.508 252.400,325.167 251.725,324.924 250.900 C 324.226 248.530,321.925 242.241,321.593 241.800 C 321.428 241.580,321.167 240.815,321.014 240.100 C 320.862 239.385,320.591 238.800,320.413 238.800 C 320.235 238.800,319.963 238.125,319.808 237.300 C 319.654 236.475,319.174 234.990,318.742 234.000 C 318.310 233.010,317.799 231.840,317.606 231.400 C 317.413 230.960,317.041 229.880,316.780 229.000 C 316.518 228.120,316.145 227.229,315.952 227.020 C 315.758 226.811,315.599 226.361,315.598 226.020 C 315.596 225.679,315.326 224.884,314.998 224.254 C 314.669 223.624,314.399 222.904,314.398 222.654 C 314.396 222.404,314.143 221.717,313.835 221.127 C 313.527 220.537,313.154 219.502,313.006 218.827 C 312.858 218.152,312.587 217.600,312.403 217.600 C 312.220 217.600,311.951 216.897,311.806 216.037 C 311.661 215.177,311.291 214.142,310.984 213.737 C 310.677 213.332,310.419 212.640,310.410 212.200 C 310.402 211.760,310.129 210.890,309.804 210.268 C 308.909 208.551,306.740 202.082,306.228 199.600 C 305.978 198.390,305.587 197.434,305.360 197.476 C 305.117 197.520,305.020 197.042,305.127 196.319 C 305.260 195.409,305.178 195.167,304.811 195.393 C 304.458 195.612,304.384 195.480,304.557 194.936 C 304.771 194.260,303.827 190.840,302.808 188.600 C 301.511 185.751,300.800 183.988,300.800 183.622 C 300.800 183.390,300.634 183.200,300.432 183.200 C 300.229 183.200,299.945 182.658,299.799 181.996 C 299.654 181.334,299.324 180.565,299.067 180.289 C 298.810 180.012,298.150 178.901,297.600 177.820 C 292.707 168.200,283.054 157.361,272.200 149.297 C 266.462 145.035,254.800 139.063,254.800 140.387 C 254.800 140.601,254.494 140.658,254.120 140.514 C 253.695 140.351,253.620 140.193,253.920 140.093 C 254.805 139.798,254.412 139.266,253.100 138.982 C 252.385 138.826,251.689 138.526,251.554 138.313 C 251.418 138.101,250.579 137.898,249.689 137.863 C 248.800 137.828,248.100 137.620,248.136 137.400 C 248.171 137.180,247.840 137.000,247.400 137.000 C 246.960 137.000,246.636 137.198,246.680 137.441 C 246.731 137.717,246.358 137.796,245.680 137.653 C 244.683 137.442,244.669 137.413,245.500 137.284 C 246.811 137.081,246.601 136.530,245.100 136.235 C 243.082 135.838,242.645 135.730,242.000 135.465 C 240.717 134.938,232.905 133.786,227.824 133.375 L 224.649 133.118 226.408 131.659 C 229.556 129.049,233.234 125.067,233.018 124.502 C 232.903 124.203,232.961 124.052,233.146 124.167 C 233.853 124.603,237.449 119.527,236.976 118.762 C 236.793 118.465,236.844 118.380,237.108 118.543 C 237.345 118.689,237.868 118.312,238.269 117.705 C 239.646 115.624,242.400 109.583,242.400 108.646 C 242.400 108.316,242.566 107.945,242.769 107.819 C 242.972 107.694,243.262 107.008,243.412 106.295 C 243.563 105.583,244.067 104.586,244.533 104.079 C 245.259 103.288,245.296 103.099,244.790 102.741 C 244.301 102.396,244.320 102.363,244.897 102.548 C 245.595 102.773,247.895 99.714,248.898 97.226 C 249.126 96.662,249.557 95.633,249.856 94.940 C 250.155 94.246,250.400 93.312,250.400 92.863 C 250.400 92.414,250.550 91.955,250.732 91.842 C 250.915 91.729,251.309 90.593,251.608 89.318 C 252.268 86.506,252.191 86.772,252.634 85.800 C 252.835 85.360,253.000 82.390,253.000 79.200 L 253.000 73.400 251.495 70.939 L 249.989 68.478 250.254 65.039 C 250.451 62.474,250.395 61.600,250.035 61.600 C 249.770 61.600,249.666 61.417,249.804 61.193 C 249.942 60.970,250.204 60.879,250.386 60.991 C 250.567 61.104,250.825 60.912,250.958 60.565 C 251.376 59.477,251.222 57.583,250.700 57.384 C 250.243 57.209,250.339 48.754,250.876 41.800 C 250.947 40.890,250.827 40.227,250.600 40.263 C 250.380 40.298,250.166 39.415,250.124 38.302 C 250.082 37.188,249.872 36.168,249.656 36.034 C 249.440 35.901,249.140 35.299,248.988 34.696 C 248.837 34.093,248.572 33.600,248.400 33.600 C 248.228 33.600,247.985 33.195,247.860 32.700 C 247.375 30.775,243.020 26.175,240.591 25.023 C 239.155 24.341,238.069 24.493,239.212 25.216 C 239.705 25.528,239.687 25.589,239.100 25.594 C 238.665 25.598,238.400 25.298,238.400 24.800 C 238.400 24.360,238.220 23.978,238.000 23.950 C 237.780 23.922,237.435 23.878,237.233 23.850 C 237.032 23.823,236.732 23.665,236.567 23.500 C 236.402 23.335,235.802 23.197,235.233 23.194 C 233.764 23.185,231.600 20.452,231.600 18.606 C 231.600 17.302,226.436 11.950,225.415 12.196 C 224.967 12.304,224.840 12.284,225.133 12.152 C 225.760 11.869,223.797 9.600,222.925 9.600 C 222.636 9.600,222.400 9.459,222.400 9.286 C 222.400 9.114,221.275 8.464,219.900 7.841 C 218.525 7.219,216.976 6.510,216.457 6.264 C 215.938 6.019,214.741 5.814,213.797 5.809 C 212.852 5.804,212.151 5.684,212.238 5.542 C 212.683 4.813,207.142 4.469,206.055 5.158 M152.400 44.400 C 152.400 45.733,152.578 46.800,152.800 46.800 C 153.022 46.800,153.200 45.733,153.200 44.400 C 153.200 43.067,153.022 42.000,152.800 42.000 C 152.578 42.000,152.400 43.067,152.400 44.400 M226.029 44.831 C 233.523 47.987,238.878 55.948,241.076 67.200 C 241.398 68.850,241.741 70.605,241.839 71.100 C 241.972 71.781,242.292 72.000,243.154 72.000 C 246.516 72.000,247.940 76.186,246.768 82.627 C 245.595 89.074,242.120 97.638,240.092 99.080 C 238.097 100.497,237.698 101.130,237.272 103.546 C 236.793 106.266,234.348 111.790,232.173 115.067 C 216.800 138.227,191.123 139.698,174.523 118.370 C 172.635 115.944,169.603 111.086,169.598 110.479 C 169.596 110.325,169.348 109.727,169.046 109.148 C 168.319 107.755,166.906 103.381,166.575 101.500 C 166.430 100.675,166.096 100.000,165.834 100.000 C 162.324 100.000,156.014 81.488,157.563 75.736 C 158.135 73.614,159.749 72.000,161.301 72.000 C 162.403 72.000,162.472 71.917,162.213 70.900 C 161.521 68.187,161.516 63.524,162.202 61.068 C 163.598 56.070,167.827 50.921,170.176 51.361 C 177.753 52.782,189.175 52.185,196.200 50.001 C 199.084 49.105,203.572 47.572,205.600 46.790 C 214.578 43.331,221.004 42.715,226.029 44.831 M250.800 50.000 C 250.800 54.000,250.950 56.400,251.200 56.400 C 251.450 56.400,251.600 54.000,251.600 50.000 C 251.600 46.000,251.450 43.600,251.200 43.600 C 250.950 43.600,250.800 46.000,250.800 50.000 M177.827 68.731 C 176.586 69.143,175.102 70.105,173.827 71.323 C 171.597 73.455,171.401 73.409,176.600 71.972 C 181.351 70.658,186.895 71.133,189.916 73.112 C 190.900 73.758,190.910 73.754,190.452 72.897 C 188.302 68.879,182.826 67.073,177.827 68.731 M218.833 68.783 C 217.121 69.461,213.685 72.618,214.151 73.084 C 214.277 73.211,214.610 73.130,214.890 72.905 C 217.619 70.717,226.001 70.770,231.700 73.010 C 232.932 73.495,232.455 72.509,230.752 71.052 C 227.557 68.317,222.459 67.347,218.833 68.783 M179.800 79.027 C 177.367 80.288,174.681 83.747,175.499 84.566 C 175.934 85.000,176.225 84.805,176.936 83.600 C 177.833 82.082,178.237 82.085,178.542 83.610 C 179.456 88.178,186.583 87.999,187.102 83.396 C 187.311 81.543,188.038 81.024,188.719 82.241 C 188.916 82.594,189.402 82.819,189.798 82.741 C 190.434 82.616,190.385 82.442,189.376 81.243 C 187.199 78.659,182.576 77.588,179.800 79.027 M217.800 79.215 C 215.823 80.289,214.400 81.568,214.400 82.270 C 214.400 82.997,215.571 82.941,215.855 82.200 C 216.322 80.983,217.200 81.556,217.200 83.078 C 217.200 86.677,222.580 88.403,224.964 85.569 C 225.885 84.475,226.197 83.649,226.047 82.700 C 225.923 81.914,227.218 82.526,227.678 83.470 C 228.282 84.709,229.200 85.164,229.200 84.225 C 229.200 80.112,221.984 76.940,217.800 79.215 M193.428 99.954 C 193.077 100.523,193.488 101.200,194.183 101.200 C 194.478 101.200,195.683 101.863,196.860 102.674 C 200.139 104.933,203.733 105.064,206.748 103.035 C 207.927 102.241,209.321 101.484,209.846 101.353 C 210.458 101.199,210.800 100.823,210.800 100.304 C 210.800 99.047,208.043 99.582,205.941 101.247 C 203.301 103.338,199.063 102.866,197.158 100.270 C 196.753 99.719,193.732 99.463,193.428 99.954 M192.000 115.921 C 192.000 117.773,202.404 119.068,207.340 117.830 C 208.721 117.483,210.405 117.200,211.083 117.200 C 212.365 117.200,212.956 116.472,212.545 115.400 C 212.297 114.756,210.400 114.553,210.400 115.172 C 210.400 117.287,196.816 117.429,194.369 115.339 C 193.219 114.358,192.000 114.657,192.000 115.921 M196.549 120.082 C 195.889 121.150,199.505 122.793,202.526 122.798 C 204.299 122.800,208.000 121.326,208.000 120.617 C 208.000 119.690,207.491 119.639,205.966 120.417 C 204.182 121.328,200.711 121.460,199.200 120.676 C 197.435 119.760,196.832 119.625,196.549 120.082 M227.200 133.945 C 227.200 134.134,226.750 134.203,226.200 134.098 C 225.650 133.993,225.200 133.838,225.200 133.753 C 225.200 133.669,225.650 133.600,226.200 133.600 C 226.750 133.600,227.200 133.755,227.200 133.945 M210.200 169.979 C 211.080 170.380,212.970 171.245,214.400 171.902 C 215.830 172.559,217.450 173.231,218.000 173.397 C 218.550 173.562,219.180 173.833,219.400 173.998 C 219.620 174.163,221.780 175.152,224.200 176.195 C 226.620 177.239,229.770 178.621,231.200 179.267 C 232.630 179.914,234.160 180.603,234.600 180.800 C 239.459 182.969,241.600 184.047,241.600 184.323 C 241.600 184.505,238.135 186.337,233.900 188.394 C 223.284 193.552,206.720 201.640,196.200 206.803 C 186.653 211.488,170.198 219.533,160.530 224.243 C 153.383 227.725,154.702 227.516,150.909 225.766 C 147.145 224.030,145.319 223.196,142.300 221.836 C 138.316 220.041,135.896 218.936,132.691 217.446 C 130.981 216.650,129.507 216.000,129.414 216.000 C 129.322 216.000,127.661 215.263,125.723 214.362 C 123.785 213.460,121.120 212.221,119.800 211.607 C 118.480 210.993,116.455 210.066,115.299 209.547 C 112.487 208.284,112.543 208.228,119.629 205.137 C 125.836 202.431,128.906 201.069,132.600 199.386 C 133.700 198.885,140.450 195.926,147.600 192.811 C 154.750 189.696,161.320 186.819,162.200 186.418 C 164.211 185.501,170.941 182.520,172.800 181.722 C 173.570 181.391,174.920 180.790,175.800 180.386 C 176.680 179.982,181.810 177.737,187.200 175.397 C 192.590 173.058,197.990 170.675,199.200 170.104 C 205.016 167.355,204.450 167.361,210.200 169.979 M255.000 189.794 C 256.320 190.389,258.300 191.288,259.400 191.791 C 260.500 192.295,264.190 193.919,267.600 195.400 C 271.010 196.881,274.700 198.506,275.800 199.010 C 276.900 199.514,278.700 200.314,279.800 200.787 C 280.900 201.261,282.340 201.912,283.000 202.234 C 283.660 202.557,286.798 203.950,289.974 205.331 C 297.365 208.546,297.345 208.026,290.200 211.210 C 289.100 211.700,286.340 212.978,284.066 214.050 C 281.792 215.123,279.861 216.000,279.774 216.000 C 279.688 216.000,278.309 216.613,276.709 217.361 C 267.971 221.450,265.915 222.400,265.803 222.400 C 265.735 222.400,264.177 223.099,262.340 223.953 C 260.503 224.808,256.930 226.448,254.400 227.598 C 246.349 231.259,244.879 231.934,237.463 235.374 C 235.298 236.378,233.471 237.200,233.403 237.200 C 233.282 237.200,229.540 238.922,222.876 242.043 C 221.048 242.899,219.480 243.600,219.392 243.600 C 219.303 243.600,217.829 244.252,216.115 245.050 C 214.402 245.847,211.650 247.115,210.000 247.868 C 208.350 248.620,206.568 249.476,206.040 249.769 C 205.045 250.321,203.674 249.822,194.600 245.605 C 193.280 244.992,190.607 243.749,188.660 242.845 C 186.713 241.940,185.064 241.200,184.996 241.200 C 184.872 241.200,181.285 239.565,175.685 236.958 C 174.081 236.211,172.697 235.600,172.608 235.600 C 172.520 235.600,170.915 234.879,169.041 233.997 C 167.168 233.115,165.177 232.219,164.618 232.007 C 162.845 231.333,163.438 230.879,170.700 227.349 C 174.605 225.451,182.390 221.647,188.000 218.897 C 193.610 216.147,201.260 212.411,205.000 210.595 C 217.678 204.438,232.565 197.162,241.784 192.614 C 248.736 189.185,251.167 188.160,251.784 188.398 C 252.233 188.570,253.680 189.199,255.000 189.794 M122.329 222.621 C 131.278 226.483,138.888 229.798,139.239 229.987 C 139.591 230.176,141.661 231.082,143.839 232.001 C 146.018 232.919,148.700 234.082,149.800 234.586 C 150.900 235.089,153.780 236.346,156.200 237.378 C 158.620 238.410,161.550 239.692,162.711 240.227 C 163.872 240.762,164.932 241.200,165.067 241.200 C 165.202 241.200,166.052 241.546,166.956 241.968 C 168.541 242.709,170.419 243.534,173.800 244.976 C 174.680 245.352,175.940 245.905,176.600 246.205 C 177.725 246.716,180.797 248.049,182.600 248.809 C 184.838 249.751,186.758 250.576,188.200 251.213 C 190.607 252.277,192.385 253.050,194.600 253.995 C 195.700 254.464,197.455 255.240,198.500 255.719 L 200.400 256.589 200.400 319.628 C 200.400 354.299,200.295 382.772,200.166 382.901 C 199.961 383.105,196.790 381.912,193.000 380.205 C 192.340 379.907,190.270 379.009,188.400 378.208 C 183.737 376.211,183.793 376.236,180.264 374.628 C 178.540 373.843,177.037 373.200,176.925 373.200 C 176.813 373.200,176.154 372.943,175.460 372.629 C 174.767 372.315,173.300 371.669,172.200 371.195 C 171.100 370.720,169.390 369.971,168.400 369.530 C 167.410 369.089,166.240 368.574,165.800 368.386 C 161.924 366.728,160.766 366.227,159.200 365.530 C 158.210 365.089,157.040 364.576,156.600 364.391 C 154.458 363.489,152.801 362.771,150.688 361.830 C 149.417 361.263,148.304 360.800,148.216 360.800 C 148.060 360.800,144.221 359.084,140.974 357.562 C 140.079 357.143,139.237 356.800,139.102 356.800 C 138.966 356.800,137.628 356.243,136.128 355.562 C 133.463 354.353,131.633 353.536,128.800 352.291 C 128.030 351.952,126.230 351.136,124.800 350.476 C 123.370 349.816,121.210 348.830,120.000 348.284 C 118.790 347.739,116.540 346.709,115.000 345.997 C 113.460 345.284,111.435 344.370,110.500 343.965 C 108.011 342.886,108.389 342.600,112.300 342.600 C 133.624 342.600,142.135 316.732,125.503 302.475 C 124.629 301.725,124.487 301.385,124.803 300.794 C 127.739 295.309,118.779 285.023,107.337 280.742 L 105.200 279.943 105.200 247.771 C 105.200 225.118,105.327 215.600,105.629 215.600 C 105.866 215.600,113.381 218.760,122.329 222.621 M302.798 248.100 L 302.795 280.600 299.932 282.000 C 289.513 287.093,283.632 294.520,285.302 300.476 C 285.565 301.414,285.366 301.775,283.756 303.276 C 268.611 317.409,276.403 341.122,296.700 342.668 C 300.003 342.919,300.789 343.299,299.100 343.828 C 298.605 343.983,296.670 344.826,294.800 345.702 C 292.930 346.577,290.230 347.829,288.800 348.484 C 280.820 352.137,277.016 353.889,273.668 355.455 C 271.615 356.415,269.874 357.200,269.798 357.200 C 269.723 357.200,267.744 358.100,265.400 359.200 C 263.056 360.300,261.080 361.200,261.009 361.200 C 260.938 361.200,259.287 361.940,257.340 362.845 C 254.070 364.364,251.030 365.761,247.000 367.596 C 246.120 367.997,243.630 369.152,241.468 370.162 C 239.305 371.173,237.478 372.000,237.407 372.000 C 237.337 372.000,235.777 372.699,233.940 373.553 C 232.103 374.408,229.007 375.848,227.060 376.753 C 225.113 377.659,223.466 378.400,223.400 378.400 C 223.291 378.400,221.876 379.050,213.771 382.819 C 212.435 383.441,210.860 384.070,210.271 384.218 L 209.200 384.487 209.200 321.218 L 209.200 257.950 211.900 256.734 C 213.385 256.065,216.280 254.727,218.332 253.759 C 220.385 252.792,222.136 252.000,222.224 252.000 C 222.311 252.000,223.781 251.355,225.491 250.566 C 227.201 249.777,229.320 248.804,230.200 248.403 C 231.080 248.003,233.570 246.848,235.732 245.838 C 237.895 244.827,239.722 244.000,239.793 244.000 C 239.863 244.000,241.513 243.260,243.460 242.355 C 251.833 238.465,261.414 234.062,271.200 229.607 C 273.730 228.456,276.700 227.100,277.800 226.594 C 278.900 226.088,280.700 225.275,281.800 224.787 C 282.900 224.299,285.660 223.022,287.934 221.950 C 290.208 220.877,292.140 220.000,292.227 220.000 C 292.314 220.000,293.963 219.256,295.892 218.348 C 300.873 216.001,301.736 215.633,302.300 215.616 C 302.696 215.603,302.800 222.357,302.798 248.100 M334.676 281.500 C 334.575 281.885,334.493 281.570,334.493 280.800 C 334.493 280.030,334.575 279.715,334.676 280.100 C 334.776 280.485,334.776 281.115,334.676 281.500 M105.400 284.858 C 106.720 285.361,108.970 286.448,110.400 287.274 C 112.817 288.669,113.807 289.410,116.400 291.763 C 122.502 297.300,121.865 301.689,115.179 300.168 C 111.734 299.384,111.464 299.522,113.921 300.806 C 121.849 304.948,125.394 308.036,127.756 312.859 C 133.026 323.620,127.553 334.649,115.449 337.661 C 106.455 339.900,93.059 332.885,86.150 322.319 C 73.171 302.470,86.019 277.467,105.400 284.858 M318.598 285.169 C 330.449 291.003,332.856 309.546,323.524 323.111 C 317.665 331.627,304.410 339.245,297.276 338.197 C 279.403 335.572,274.385 316.913,288.480 305.493 C 290.020 304.245,291.739 303.226,296.994 300.444 C 298.837 299.468,298.398 299.414,294.837 300.178 C 288.350 301.568,287.808 296.974,293.831 291.648 C 302.291 284.167,311.610 281.729,318.598 285.169 M336.000 290.600 C 336.000 292.884,335.865 294.836,335.700 294.939 C 335.535 295.041,335.400 293.089,335.400 290.601 C 335.400 288.113,335.535 286.161,335.700 286.263 C 335.865 286.364,336.000 288.316,336.000 290.600 M334.676 301.100 C 334.575 301.485,334.493 301.170,334.493 300.400 C 334.493 299.630,334.575 299.315,334.676 299.700 C 334.776 300.085,334.776 300.715,334.676 301.100 M156.203 313.242 L 152.677 316.885 154.639 317.944 L 156.600 319.003 156.706 331.776 C 156.817 345.165,156.780 345.479,155.191 344.683 C 154.646 344.410,153.705 343.968,153.100 343.702 L 152.000 343.217 152.000 345.009 C 152.000 345.994,152.162 346.800,152.360 346.800 C 152.708 346.800,155.645 348.126,163.532 351.841 C 165.585 352.809,167.330 353.600,167.408 353.600 C 167.487 353.600,169.228 354.387,171.276 355.348 C 179.481 359.200,181.226 360.000,181.420 360.000 C 181.531 360.000,182.864 360.614,184.381 361.364 C 188.768 363.532,188.800 363.534,188.800 361.637 C 188.800 359.972,188.251 359.522,184.700 358.272 C 184.019 358.032,183.536 331.600,184.213 331.600 C 184.330 331.600,185.072 331.870,185.862 332.200 C 186.651 332.530,187.369 332.800,187.457 332.800 C 187.707 332.800,180.816 319.257,180.451 319.031 C 180.148 318.844,173.568 325.632,173.267 326.442 C 173.193 326.639,173.408 326.800,173.744 326.800 C 174.080 326.800,174.995 327.178,175.777 327.640 L 177.200 328.479 177.200 341.440 C 177.200 349.790,177.058 354.400,176.801 354.400 C 176.416 354.400,175.281 353.894,167.300 350.161 L 163.600 348.431 163.600 335.415 C 163.600 321.356,163.516 321.839,165.760 323.010 C 166.397 323.342,166.983 323.551,167.061 323.473 C 167.255 323.279,160.259 309.605,159.964 309.602 C 159.835 309.601,158.142 311.239,156.203 313.242 " stroke="none" fill="#334b8b" fill-rule="evenodd"></path><path id="path1" d="M213.699 44.607 C 212.324 44.906,208.814 46.049,205.899 47.148 C 192.720 52.117,181.802 53.809,173.009 52.246 L 169.417 51.608 168.009 52.742 C 163.206 56.607,161.462 62.425,162.486 71.177 C 162.581 71.994,162.385 72.199,161.284 72.430 C 158.329 73.049,157.269 75.749,158.017 80.754 C 159.260 89.079,162.864 97.985,165.551 99.375 C 166.528 99.880,166.818 100.423,167.419 102.877 C 171.927 121.274,189.226 134.927,205.330 132.798 C 219.785 130.886,233.222 118.318,236.900 103.270 C 237.532 100.683,237.903 99.864,238.557 99.611 C 241.073 98.638,243.782 93.052,245.823 84.628 C 247.768 76.599,246.662 72.400,242.599 72.400 C 241.797 72.400,241.595 72.150,241.391 70.900 C 238.114 50.868,228.202 41.456,213.699 44.607 M185.301 68.171 C 187.261 68.870,189.480 70.583,190.413 72.118 C 191.500 73.904,191.066 74.079,188.492 72.891 C 185.251 71.396,179.260 71.394,174.718 72.888 C 171.232 74.035,170.886 73.965,172.040 72.344 C 174.717 68.584,180.957 66.620,185.301 68.171 M227.891 68.791 C 229.072 69.299,230.681 70.450,231.591 71.436 C 233.299 73.289,233.683 74.286,232.500 73.795 C 226.860 71.457,220.480 71.105,216.096 72.890 C 213.134 74.097,212.819 73.875,214.415 71.705 C 217.324 67.750,222.745 66.577,227.891 68.791 M186.632 78.759 C 188.615 79.659,190.400 81.373,190.400 82.375 C 190.400 83.355,189.387 83.708,188.756 82.948 C 188.329 82.432,188.160 82.597,187.620 84.060 C 186.005 88.431,180.487 88.700,178.433 84.509 C 177.698 83.010,177.375 82.888,177.085 83.998 C 176.830 84.973,175.706 85.466,175.106 84.866 C 174.525 84.285,175.712 81.616,177.148 80.277 C 179.677 77.917,183.449 77.313,186.632 78.759 M225.116 78.763 C 228.526 80.517,231.189 85.200,228.777 85.200 C 228.332 85.200,227.736 84.665,227.329 83.900 L 226.638 82.600 226.419 83.605 C 225.263 88.906,216.800 88.567,216.800 83.220 C 216.800 82.240,216.551 82.192,215.729 83.014 C 215.070 83.672,214.000 83.187,214.000 82.229 C 214.000 79.310,221.583 76.946,225.116 78.763 M198.374 100.741 C 201.339 102.730,203.079 102.726,206.026 100.720 C 208.758 98.860,210.060 98.517,210.960 99.417 C 211.828 100.285,211.621 100.855,210.168 101.596 C 209.526 101.924,208.021 102.811,206.824 103.568 C 203.628 105.589,200.612 105.585,197.555 103.555 C 196.358 102.761,194.934 101.972,194.390 101.801 C 192.774 101.296,192.424 100.433,193.429 99.428 C 194.286 98.572,195.702 98.948,198.374 100.741 M195.131 115.264 C 198.395 116.843,208.153 116.671,209.999 115.001 C 211.319 113.807,213.446 114.646,213.133 116.238 C 212.735 118.260,202.696 119.446,196.613 118.190 C 194.989 117.855,193.511 117.606,193.330 117.637 C 191.905 117.885,190.912 116.486,191.600 115.200 C 192.147 114.178,192.917 114.191,195.131 115.264 M199.009 120.045 C 201.234 121.029,203.734 120.947,206.127 119.809 C 208.136 118.854,209.514 119.749,208.226 121.171 C 205.343 124.357,194.853 123.166,196.145 119.800 C 196.446 119.015,196.735 119.040,199.009 120.045 M203.998 168.531 C 203.449 168.756,202.010 169.378,200.800 169.913 C 199.590 170.448,192.120 173.722,184.200 177.187 C 176.280 180.652,168.909 183.894,167.820 184.390 C 166.731 184.887,158.451 188.536,149.420 192.500 C 120.226 205.315,115.403 207.447,114.624 207.883 C 113.649 208.428,112.406 207.808,135.638 218.358 L 154.277 226.821 167.438 220.362 C 174.677 216.810,183.300 212.597,186.600 210.999 C 189.900 209.402,197.055 205.913,202.500 203.247 C 227.726 190.896,232.501 188.566,236.800 186.509 L 241.400 184.309 239.400 183.421 C 238.300 182.933,236.770 182.251,236.000 181.905 C 229.688 179.075,226.283 177.563,218.800 174.269 C 214.070 172.187,209.029 169.951,207.598 169.302 C 205.480 168.341,204.810 168.197,203.998 168.531 M249.200 189.415 C 248.317 189.940,235.119 196.419,214.200 206.597 C 204.710 211.215,192.838 217.004,180.400 223.081 C 162.493 231.830,163.487 231.256,165.269 231.822 C 165.747 231.973,167.995 232.976,170.264 234.049 C 172.534 235.122,174.463 236.000,174.550 236.000 C 174.638 236.000,176.575 236.872,178.855 237.937 C 181.135 239.003,184.710 240.648,186.800 241.593 C 188.890 242.538,192.670 244.259,195.200 245.418 C 201.967 248.518,204.459 249.600,204.832 249.600 C 205.180 249.600,215.916 244.792,222.332 241.762 C 224.385 240.793,226.130 240.000,226.209 240.000 C 226.288 240.000,227.848 239.300,229.676 238.445 C 231.504 237.590,236.195 235.430,240.100 233.645 C 244.005 231.860,250.305 228.977,254.100 227.238 C 260.702 224.212,267.574 221.079,282.000 214.517 C 292.084 209.929,295.200 208.453,295.200 208.263 C 295.200 208.168,292.635 206.968,289.500 205.597 C 286.365 204.226,281.280 201.973,278.200 200.590 C 251.503 188.603,250.935 188.384,249.200 189.415 M105.600 247.795 L 105.600 279.675 106.438 279.894 C 110.090 280.849,117.878 285.848,121.479 289.548 C 124.628 292.784,125.400 294.524,125.400 298.391 L 125.400 301.783 126.937 303.171 C 133.047 308.692,136.174 318.305,134.411 326.154 C 132.406 335.085,121.989 343.156,112.420 343.193 C 111.377 343.197,110.797 343.345,111.020 343.551 C 111.320 343.827,132.425 353.470,137.800 355.786 C 138.460 356.071,140.440 356.928,142.200 357.691 C 143.960 358.453,146.570 359.581,148.000 360.195 C 149.430 360.810,151.320 361.631,152.200 362.020 C 153.080 362.410,163.880 367.086,176.200 372.413 C 188.520 377.739,198.915 382.262,199.300 382.463 C 199.965 382.810,200.000 379.703,200.000 319.873 L 200.000 256.918 197.300 255.690 C 195.815 255.015,193.479 253.998,192.110 253.430 C 190.740 252.862,188.670 251.969,187.510 251.444 C 182.476 249.167,181.632 248.800,181.433 248.800 C 181.317 248.800,180.272 248.360,179.111 247.823 C 177.156 246.919,107.216 216.536,106.100 216.107 C 105.703 215.954,105.600 222.455,105.600 247.795 M293.200 220.006 C 288.470 222.180,283.430 224.494,282.000 225.149 C 280.570 225.803,276.880 227.498,273.800 228.915 C 270.720 230.333,267.300 231.903,266.200 232.405 C 239.676 244.511,227.588 250.025,225.000 251.202 C 224.120 251.602,221.870 252.637,220.000 253.502 C 218.130 254.367,215.430 255.589,214.000 256.217 C 212.570 256.846,210.995 257.614,210.500 257.926 L 209.600 258.492 209.600 321.022 C 209.600 355.414,209.735 383.633,209.900 383.731 C 210.144 383.876,234.223 373.083,251.600 365.039 C 256.903 362.585,259.886 361.215,265.200 358.794 C 271.942 355.723,274.480 354.562,279.600 352.208 C 282.130 351.045,287.260 348.697,291.000 346.992 C 298.556 343.547,299.132 343.200,297.300 343.200 C 290.771 343.200,282.563 338.529,278.546 332.528 C 272.906 324.102,274.658 311.834,282.643 303.835 C 284.832 301.642,285.047 301.284,284.708 300.394 C 282.686 295.093,289.116 287.026,299.699 281.587 L 302.397 280.200 302.399 248.100 C 302.399 230.445,302.265 216.012,302.100 216.026 C 301.935 216.041,297.930 217.832,293.200 220.006 M93.589 284.911 C 73.794 291.660,78.642 323.639,101.153 334.808 C 114.562 341.461,129.320 334.480,129.320 321.486 C 129.320 312.174,125.387 307.377,111.901 300.241 C 108.211 298.288,105.665 296.804,106.001 296.801 C 106.111 296.801,108.316 297.520,110.902 298.400 C 120.882 301.797,123.368 298.563,115.942 291.843 C 108.814 285.393,100.102 282.690,93.589 284.911 M306.600 284.753 C 299.803 286.722,291.195 293.293,290.195 297.276 C 289.330 300.723,293.123 300.895,301.068 297.771 C 306.978 295.447,303.770 297.555,293.260 302.902 C 276.805 311.273,276.734 331.711,293.142 336.810 C 302.486 339.714,315.993 333.412,323.213 322.781 C 336.035 303.900,325.303 279.333,306.600 284.753 M164.374 316.849 C 168.563 324.992,168.442 324.600,166.500 323.769 C 165.675 323.416,164.775 323.034,164.500 322.921 C 164.106 322.758,164.000 325.424,164.000 335.478 L 164.000 348.242 169.913 350.921 C 173.166 352.394,175.956 353.600,176.113 353.600 C 176.271 353.600,176.400 347.931,176.400 341.002 L 176.400 328.404 174.600 327.558 C 173.610 327.093,172.800 326.556,172.800 326.364 C 172.800 325.798,180.095 318.365,180.514 318.505 C 180.923 318.641,188.444 333.290,188.219 333.514 C 188.146 333.587,187.415 333.366,186.594 333.023 C 185.774 332.681,184.944 332.400,184.751 332.400 C 184.557 332.400,184.400 338.012,184.400 344.946 L 184.400 357.493 186.800 358.633 L 189.200 359.773 189.200 361.686 C 189.200 364.051,189.075 364.062,184.740 362.052 C 178.477 359.149,166.610 353.692,162.000 351.595 C 159.470 350.444,156.095 348.900,154.500 348.165 L 151.600 346.827 151.600 344.813 C 151.600 342.544,151.770 342.462,154.055 343.628 C 154.947 344.083,155.745 344.388,155.828 344.305 C 155.938 344.195,156.095 322.786,156.011 319.354 C 156.005 319.109,155.180 318.596,154.179 318.213 C 151.860 317.328,151.887 317.256,156.200 312.688 C 160.489 308.146,159.688 307.738,164.374 316.849 " stroke="none" fill="#f4b304" fill-rule="evenodd"></path><path id="path2" d="M218.105 43.887 C 218.714 43.979,219.614 43.977,220.105 43.882 C 220.597 43.787,220.100 43.711,219.000 43.714 C 217.900 43.717,217.497 43.795,218.105 43.887 M222.800 44.400 C 224.168 44.838,225.219 44.838,224.200 44.400 C 223.760 44.211,223.040 44.062,222.600 44.068 C 221.957 44.077,221.996 44.143,222.800 44.400 M208.600 45.814 C 207.600 46.296,207.566 46.351,208.400 46.148 C 209.533 45.871,210.807 45.221,210.200 45.230 C 209.980 45.233,209.260 45.496,208.600 45.814 M229.000 46.657 C 231.037 48.464,231.787 48.991,231.002 48.063 C 230.566 47.548,229.847 46.941,229.404 46.714 C 228.962 46.487,228.780 46.462,229.000 46.657 M232.400 49.725 C 232.400 49.794,232.985 50.379,233.700 51.025 L 235.000 52.200 233.825 50.900 C 232.730 49.688,232.400 49.416,232.400 49.725 M191.600 51.200 C 190.808 51.454,190.767 51.520,191.400 51.520 C 191.840 51.520,192.650 51.376,193.200 51.200 C 193.992 50.946,194.033 50.880,193.400 50.880 C 192.960 50.880,192.150 51.024,191.600 51.200 M166.877 53.459 L 165.000 55.318 167.000 53.591 C 168.100 52.641,169.075 51.804,169.167 51.732 C 169.258 51.659,169.203 51.600,169.043 51.600 C 168.884 51.600,167.909 52.437,166.877 53.459 M185.700 52.276 C 186.085 52.376,186.715 52.376,187.100 52.276 C 187.485 52.175,187.170 52.093,186.400 52.093 C 185.630 52.093,185.315 52.175,185.700 52.276 M177.516 52.697 C 178.899 52.775,181.059 52.774,182.316 52.695 C 183.572 52.616,182.440 52.552,179.800 52.553 C 177.160 52.553,176.132 52.618,177.516 52.697 M161.693 65.600 C 161.693 66.370,161.775 66.685,161.876 66.300 C 161.976 65.915,161.976 65.285,161.876 64.900 C 161.775 64.515,161.693 64.830,161.693 65.600 M240.468 66.000 C 240.488 67.039,241.118 68.746,241.132 67.800 C 241.138 67.360,240.989 66.640,240.800 66.200 C 240.589 65.710,240.461 65.632,240.468 66.000 M180.707 67.890 C 181.426 67.979,182.506 67.977,183.107 67.886 C 183.708 67.795,183.120 67.722,181.800 67.724 C 180.480 67.726,179.988 67.801,180.707 67.890 M221.700 67.887 C 222.305 67.978,223.295 67.978,223.900 67.887 C 224.505 67.795,224.010 67.720,222.800 67.720 C 221.590 67.720,221.095 67.795,221.700 67.887 M184.800 68.286 C 185.130 68.409,185.895 68.760,186.500 69.065 C 187.105 69.371,187.600 69.531,187.600 69.421 C 187.600 69.107,185.298 67.996,184.720 68.032 C 184.371 68.053,184.397 68.136,184.800 68.286 M175.178 69.539 C 174.200 70.166,173.043 71.111,172.606 71.639 C 171.913 72.478,171.964 72.464,173.006 71.528 C 173.663 70.939,175.010 69.996,176.000 69.433 C 176.990 68.870,177.610 68.407,177.378 68.405 C 177.146 68.402,176.156 68.913,175.178 69.539 M228.800 69.278 C 231.358 71.657,232.872 72.833,231.600 71.453 C 230.830 70.618,229.840 69.745,229.400 69.513 C 228.960 69.281,228.690 69.175,228.800 69.278 M188.000 69.725 C 188.000 69.794,188.585 70.379,189.300 71.025 L 190.600 72.200 189.425 70.900 C 188.330 69.688,188.000 69.416,188.000 69.725 M162.400 71.333 C 162.400 71.773,162.068 72.000,161.424 72.000 C 160.887 72.000,160.356 72.147,160.245 72.328 C 160.133 72.508,160.587 72.575,161.253 72.478 C 162.408 72.308,163.179 71.446,162.649 70.916 C 162.512 70.779,162.400 70.967,162.400 71.333 M181.500 71.482 C 181.995 71.578,182.805 71.578,183.300 71.482 C 183.795 71.387,183.390 71.309,182.400 71.309 C 181.410 71.309,181.005 71.387,181.500 71.482 M221.305 71.487 C 221.914 71.579,222.814 71.577,223.305 71.482 C 223.797 71.387,223.300 71.311,222.200 71.314 C 221.100 71.317,220.697 71.395,221.305 71.487 M175.400 72.400 C 174.896 72.617,174.822 72.744,175.200 72.744 C 175.530 72.744,176.160 72.589,176.600 72.400 C 177.104 72.183,177.178 72.056,176.800 72.056 C 176.470 72.056,175.840 72.211,175.400 72.400 M227.800 72.400 C 228.240 72.589,228.870 72.744,229.200 72.744 C 229.578 72.744,229.504 72.617,229.000 72.400 C 228.560 72.211,227.930 72.056,227.600 72.056 C 227.222 72.056,227.296 72.183,227.800 72.400 M242.814 72.369 C 243.591 72.521,244.491 72.784,244.814 72.953 C 245.136 73.121,245.051 72.976,244.624 72.630 C 244.196 72.283,243.296 72.021,242.624 72.046 C 241.407 72.092,241.408 72.093,242.814 72.369 M246.909 78.400 C 246.909 79.390,246.987 79.795,247.082 79.300 C 247.178 78.805,247.178 77.995,247.082 77.500 C 246.987 77.005,246.909 77.410,246.909 78.400 M180.000 78.418 C 179.562 78.715,179.724 78.752,180.600 78.556 C 182.071 78.227,182.390 77.998,181.367 78.006 C 180.945 78.009,180.330 78.195,180.000 78.418 M215.601 80.247 C 213.916 81.769,213.668 82.426,214.513 83.128 C 214.869 83.424,215.207 83.427,215.613 83.139 C 216.092 82.801,216.069 82.767,215.485 82.956 C 213.919 83.461,214.214 81.896,215.981 80.328 C 216.928 79.488,217.590 78.800,217.453 78.800 C 217.315 78.800,216.482 79.451,215.601 80.247 M157.693 80.400 C 157.693 81.170,157.775 81.485,157.876 81.100 C 157.976 80.715,157.976 80.085,157.876 79.700 C 157.775 79.315,157.693 79.630,157.693 80.400 M176.975 80.500 L 175.800 81.800 177.100 80.625 C 178.312 79.530,178.584 79.200,178.275 79.200 C 178.206 79.200,177.621 79.785,176.975 80.500 M227.199 80.601 C 227.968 81.480,228.755 82.380,228.948 82.600 C 229.140 82.820,229.111 82.640,228.883 82.200 C 228.655 81.760,227.868 80.860,227.134 80.201 L 225.800 79.002 227.199 80.601 M187.646 82.630 C 187.675 83.364,187.763 83.528,187.882 83.070 C 188.052 82.411,188.137 82.400,188.744 82.950 C 189.230 83.389,189.584 83.445,190.009 83.149 C 190.527 82.790,190.526 82.761,190.000 82.919 C 189.670 83.017,188.995 82.730,188.500 82.279 L 187.600 81.461 187.646 82.630 M177.500 83.065 C 177.775 83.176,178.000 83.511,178.000 83.810 C 178.000 84.108,178.154 84.448,178.342 84.564 C 178.530 84.681,178.599 84.331,178.496 83.788 C 178.383 83.198,178.043 82.813,177.653 82.832 C 177.239 82.852,177.183 82.937,177.500 83.065 M229.283 83.800 C 229.371 84.400,229.180 84.593,228.520 84.570 C 228.036 84.554,227.731 84.689,227.843 84.870 C 228.169 85.397,229.495 85.251,229.720 84.664 C 229.833 84.369,229.755 83.874,229.546 83.564 C 229.253 83.127,229.193 83.181,229.283 83.800 M245.850 84.450 C 245.517 86.117,245.840 86.440,246.200 84.800 C 246.352 84.109,246.393 83.459,246.291 83.358 C 246.189 83.256,245.991 83.747,245.850 84.450 M158.456 84.800 C 158.456 85.130,158.611 85.760,158.800 86.200 C 159.017 86.704,159.144 86.778,159.144 86.400 C 159.144 86.070,158.989 85.440,158.800 85.000 C 158.583 84.496,158.456 84.422,158.456 84.800 M223.922 86.611 C 223.806 86.728,222.921 86.993,221.955 87.200 L 220.200 87.578 221.948 87.421 C 223.288 87.300,225.403 86.400,224.347 86.400 C 224.229 86.400,224.038 86.495,223.922 86.611 M181.338 87.294 C 181.592 87.456,182.340 87.588,183.000 87.588 C 183.660 87.588,184.408 87.456,184.662 87.294 C 184.916 87.132,184.168 87.000,183.000 87.000 C 181.832 87.000,181.084 87.132,181.338 87.294 M160.229 90.800 C 160.376 91.350,160.664 92.070,160.867 92.400 C 161.125 92.817,161.157 92.695,160.971 92.000 C 160.824 91.450,160.536 90.730,160.333 90.400 C 160.075 89.983,160.043 90.105,160.229 90.800 M161.228 93.400 C 161.228 93.620,161.486 94.250,161.800 94.800 C 162.114 95.350,162.372 95.620,162.372 95.400 C 162.372 95.180,162.114 94.550,161.800 94.000 C 161.486 93.450,161.228 93.180,161.228 93.400 M241.800 96.000 C 241.459 96.660,241.269 97.200,241.379 97.200 C 241.489 97.200,241.859 96.660,242.200 96.000 C 242.541 95.340,242.731 94.800,242.621 94.800 C 242.511 94.800,242.141 95.340,241.800 96.000 M196.200 99.673 C 196.640 99.920,197.495 100.467,198.100 100.888 C 198.705 101.310,199.200 101.559,199.200 101.442 C 199.200 101.121,196.274 99.198,195.807 99.212 C 195.583 99.219,195.760 99.426,196.200 99.673 M210.977 99.751 C 211.107 100.164,210.996 100.794,210.729 101.151 C 210.294 101.733,210.319 101.732,210.965 101.142 C 211.553 100.606,211.599 100.347,211.213 99.742 C 210.754 99.023,210.747 99.023,210.977 99.751 M166.868 101.800 C 166.862 102.240,167.011 102.960,167.200 103.400 C 167.638 104.419,167.638 103.368,167.200 102.000 C 166.943 101.196,166.877 101.157,166.868 101.800 M201.300 105.076 C 201.685 105.176,202.315 105.176,202.700 105.076 C 203.085 104.975,202.770 104.893,202.000 104.893 C 201.230 104.893,200.915 104.975,201.300 105.076 M235.265 108.217 C 234.595 109.688,234.723 110.002,235.447 108.665 C 235.786 108.040,235.988 107.454,235.896 107.363 C 235.805 107.271,235.521 107.656,235.265 108.217 M191.582 115.234 C 191.336 115.693,191.240 116.173,191.368 116.301 C 191.495 116.429,191.600 116.336,191.600 116.095 C 191.600 115.854,191.883 115.374,192.229 115.029 C 192.574 114.683,192.671 114.400,192.443 114.400 C 192.215 114.400,191.827 114.775,191.582 115.234 M212.432 115.100 C 212.913 115.872,212.913 116.128,212.432 116.900 C 211.919 117.724,211.928 117.754,212.536 117.251 C 212.901 116.949,213.200 116.386,213.200 116.000 C 213.200 115.614,212.901 115.051,212.536 114.749 C 211.928 114.246,211.919 114.276,212.432 115.100 M200.711 116.693 C 201.651 116.778,203.091 116.777,203.911 116.691 C 204.730 116.605,203.960 116.536,202.200 116.537 C 200.440 116.539,199.770 116.609,200.711 116.693 M229.375 118.268 C 228.759 119.076,228.459 119.611,228.709 119.456 C 229.221 119.140,230.953 116.800,230.675 116.800 C 230.576 116.800,229.991 117.461,229.375 118.268 M194.200 117.600 C 194.640 117.789,195.270 117.944,195.600 117.944 C 195.978 117.944,195.904 117.817,195.400 117.600 C 194.960 117.411,194.330 117.256,194.000 117.256 C 193.622 117.256,193.696 117.383,194.200 117.600 M200.512 118.695 C 201.564 118.777,203.184 118.776,204.112 118.692 C 205.040 118.608,204.180 118.541,202.200 118.542 C 200.220 118.543,199.460 118.612,200.512 118.695 M196.262 119.500 C 196.160 119.665,196.464 119.816,196.938 119.835 C 197.412 119.854,198.160 120.001,198.600 120.162 C 199.105 120.347,199.031 120.229,198.400 119.842 C 197.294 119.163,196.544 119.043,196.262 119.500 M206.643 119.530 C 206.531 119.711,206.818 119.846,207.279 119.830 C 208.641 119.782,208.561 120.713,207.129 121.587 C 206.398 122.032,206.015 122.398,206.278 122.399 C 207.410 122.402,209.000 120.523,208.438 119.846 C 207.862 119.151,206.974 118.995,206.643 119.530 M175.600 119.710 C 175.600 119.771,176.995 121.166,178.700 122.810 L 181.800 125.800 178.810 122.700 C 176.033 119.821,175.600 119.417,175.600 119.710 M224.600 123.486 C 222.840 125.161,222.300 125.798,223.400 124.902 C 225.334 123.325,228.342 120.380,227.978 120.419 C 227.880 120.430,226.360 121.810,224.600 123.486 M201.505 121.083 C 202.002 121.179,202.722 121.175,203.105 121.075 C 203.487 120.975,203.080 120.896,202.200 120.901 C 201.320 120.905,201.007 120.987,201.505 121.083 M201.300 123.087 C 201.905 123.178,202.895 123.178,203.500 123.087 C 204.105 122.995,203.610 122.920,202.400 122.920 C 201.190 122.920,200.695 122.995,201.300 123.087 M198.305 133.083 C 198.802 133.179,199.522 133.175,199.905 133.075 C 200.287 132.975,199.880 132.896,199.000 132.901 C 198.120 132.905,197.807 132.987,198.305 133.083 M204.305 133.083 C 204.802 133.179,205.522 133.175,205.905 133.075 C 206.287 132.975,205.880 132.896,205.000 132.901 C 204.120 132.905,203.807 132.987,204.305 133.083 M197.600 171.000 C 197.050 171.314,196.780 171.572,197.000 171.572 C 197.220 171.572,197.850 171.314,198.400 171.000 C 198.950 170.686,199.220 170.428,199.000 170.428 C 198.780 170.428,198.150 170.686,197.600 171.000 M194.800 172.200 C 194.250 172.514,193.980 172.772,194.200 172.772 C 194.420 172.772,195.050 172.514,195.600 172.200 C 196.150 171.886,196.420 171.628,196.200 171.628 C 195.980 171.628,195.350 171.886,194.800 172.200 M214.000 172.200 C 214.550 172.514,215.180 172.772,215.400 172.772 C 215.620 172.772,215.350 172.514,214.800 172.200 C 214.250 171.886,213.620 171.628,213.400 171.628 C 213.180 171.628,213.450 171.886,214.000 172.200 M191.200 173.800 C 190.650 174.114,190.380 174.372,190.600 174.372 C 190.820 174.372,191.450 174.114,192.000 173.800 C 192.550 173.486,192.820 173.228,192.600 173.228 C 192.380 173.228,191.750 173.486,191.200 173.800 M217.600 173.800 C 218.150 174.114,218.780 174.372,219.000 174.372 C 219.220 174.372,218.950 174.114,218.400 173.800 C 217.850 173.486,217.220 173.228,217.000 173.228 C 216.780 173.228,217.050 173.486,217.600 173.800 M188.400 175.000 C 187.850 175.314,187.580 175.572,187.800 175.572 C 188.020 175.572,188.650 175.314,189.200 175.000 C 189.750 174.686,190.020 174.428,189.800 174.428 C 189.580 174.428,188.950 174.686,188.400 175.000 M224.000 176.600 C 224.550 176.914,225.180 177.172,225.400 177.172 C 225.620 177.172,225.350 176.914,224.800 176.600 C 224.250 176.286,223.620 176.028,223.400 176.028 C 223.180 176.028,223.450 176.286,224.000 176.600 M182.000 177.800 C 181.450 178.114,181.180 178.372,181.400 178.372 C 181.620 178.372,182.250 178.114,182.800 177.800 C 183.350 177.486,183.620 177.228,183.400 177.228 C 183.180 177.228,182.550 177.486,182.000 177.800 M178.400 179.400 C 177.850 179.714,177.580 179.972,177.800 179.972 C 178.020 179.972,178.650 179.714,179.200 179.400 C 179.750 179.086,180.020 178.828,179.800 178.828 C 179.580 178.828,178.950 179.086,178.400 179.400 M232.000 180.200 C 232.550 180.514,233.180 180.772,233.400 180.772 C 233.620 180.772,233.350 180.514,232.800 180.200 C 232.250 179.886,231.620 179.628,231.400 179.628 C 231.180 179.628,231.450 179.886,232.000 180.200 M238.400 183.000 C 238.950 183.314,239.580 183.572,239.800 183.572 C 240.020 183.572,239.750 183.314,239.200 183.000 C 238.650 182.686,238.020 182.428,237.800 182.428 C 237.580 182.428,237.850 182.686,238.400 183.000 M161.200 187.000 C 160.650 187.314,160.380 187.572,160.600 187.572 C 160.820 187.572,161.450 187.314,162.000 187.000 C 162.550 186.686,162.820 186.428,162.600 186.428 C 162.380 186.428,161.750 186.686,161.200 187.000 M233.600 188.000 C 232.390 188.639,231.580 189.162,231.800 189.162 C 232.020 189.162,233.190 188.639,234.400 188.000 C 235.610 187.361,236.420 186.838,236.200 186.838 C 235.980 186.838,234.810 187.361,233.600 188.000 M154.800 189.800 C 154.250 190.114,153.980 190.372,154.200 190.372 C 154.420 190.372,155.050 190.114,155.600 189.800 C 156.150 189.486,156.420 189.228,156.200 189.228 C 155.980 189.228,155.350 189.486,154.800 189.800 M148.400 192.600 C 147.850 192.914,147.580 193.172,147.800 193.172 C 148.020 193.172,148.650 192.914,149.200 192.600 C 149.750 192.286,150.020 192.028,149.800 192.028 C 149.580 192.028,148.950 192.286,148.400 192.600 M240.300 193.429 C 238.749 194.270,238.925 194.561,240.500 193.759 C 242.008 192.993,242.275 192.794,241.767 192.816 C 241.565 192.825,240.905 193.101,240.300 193.429 M145.600 193.800 C 145.050 194.114,144.780 194.372,145.000 194.372 C 145.220 194.372,145.850 194.114,146.400 193.800 C 146.950 193.486,147.220 193.228,147.000 193.228 C 146.780 193.228,146.150 193.486,145.600 193.800 M262.800 193.800 C 263.350 194.114,263.980 194.372,264.200 194.372 C 264.420 194.372,264.150 194.114,263.600 193.800 C 263.050 193.486,262.420 193.228,262.200 193.228 C 261.980 193.228,262.250 193.486,262.800 193.800 M235.600 195.800 C 234.170 196.549,233.180 197.161,233.400 197.161 C 233.620 197.161,234.970 196.549,236.400 195.800 C 237.830 195.051,238.820 194.439,238.600 194.439 C 238.380 194.439,237.030 195.051,235.600 195.800 M215.600 196.800 C 213.510 197.878,211.980 198.759,212.200 198.759 C 212.420 198.759,214.310 197.878,216.400 196.800 C 218.490 195.722,220.020 194.841,219.800 194.841 C 219.580 194.841,217.690 195.722,215.600 196.800 M131.200 200.200 C 130.650 200.514,130.380 200.772,130.600 200.772 C 130.820 200.772,131.450 200.514,132.000 200.200 C 132.550 199.886,132.820 199.628,132.600 199.628 C 132.380 199.628,131.750 199.886,131.200 200.200 M277.200 200.200 C 277.750 200.514,278.380 200.772,278.600 200.772 C 278.820 200.772,278.550 200.514,278.000 200.200 C 277.450 199.886,276.820 199.628,276.600 199.628 C 276.380 199.628,276.650 199.886,277.200 200.200 M128.000 201.600 C 127.230 202.022,126.780 202.366,127.000 202.366 C 127.220 202.366,128.030 202.022,128.800 201.600 C 129.570 201.178,130.020 200.834,129.800 200.834 C 129.580 200.834,128.770 201.178,128.000 201.600 M280.800 201.800 C 281.350 202.114,281.980 202.372,282.200 202.372 C 282.420 202.372,282.150 202.114,281.600 201.800 C 281.050 201.486,280.420 201.228,280.200 201.228 C 279.980 201.228,280.250 201.486,280.800 201.800 M124.800 203.000 C 124.250 203.314,123.980 203.572,124.200 203.572 C 124.420 203.572,125.050 203.314,125.600 203.000 C 126.150 202.686,126.420 202.428,126.200 202.428 C 125.980 202.428,125.350 202.686,124.800 203.000 M219.200 203.800 C 217.770 204.549,216.780 205.161,217.000 205.161 C 217.220 205.161,218.570 204.549,220.000 203.800 C 221.430 203.051,222.420 202.439,222.200 202.439 C 221.980 202.439,220.630 203.051,219.200 203.800 M283.600 203.000 C 284.150 203.314,284.780 203.572,285.000 203.572 C 285.220 203.572,284.950 203.314,284.400 203.000 C 283.850 202.686,283.220 202.428,283.000 202.428 C 282.780 202.428,283.050 202.686,283.600 203.000 M199.200 204.800 C 198.430 205.222,197.980 205.566,198.200 205.566 C 198.420 205.566,199.230 205.222,200.000 204.800 C 200.770 204.378,201.220 204.034,201.000 204.034 C 200.780 204.034,199.970 204.378,199.200 204.800 M287.200 204.600 C 287.750 204.914,288.380 205.172,288.600 205.172 C 288.820 205.172,288.550 204.914,288.000 204.600 C 287.450 204.286,286.820 204.028,286.600 204.028 C 286.380 204.028,286.650 204.286,287.200 204.600 M118.400 205.800 C 117.850 206.114,117.580 206.372,117.800 206.372 C 118.020 206.372,118.650 206.114,119.200 205.800 C 119.750 205.486,120.020 205.228,119.800 205.228 C 119.580 205.228,118.950 205.486,118.400 205.800 M290.000 205.800 C 290.550 206.114,291.180 206.372,291.400 206.372 C 291.620 206.372,291.350 206.114,290.800 205.800 C 290.250 205.486,289.620 205.228,289.400 205.228 C 289.180 205.228,289.450 205.486,290.000 205.800 M114.423 207.567 L 113.046 208.300 114.303 208.950 C 115.923 209.787,116.576 209.772,115.026 208.932 L 113.852 208.297 115.226 207.565 C 115.982 207.163,116.420 206.834,116.200 206.834 C 115.980 206.834,115.180 207.163,114.423 207.567 M293.965 207.561 C 295.244 208.242,295.282 208.318,294.565 208.774 C 293.871 209.215,293.868 209.239,294.533 209.030 C 294.936 208.904,295.341 208.800,295.433 208.800 C 295.525 208.800,295.600 208.625,295.600 208.410 C 295.600 208.020,293.523 206.785,292.920 206.817 C 292.744 206.826,293.214 207.161,293.965 207.561 M201.600 212.400 C 200.830 212.822,200.380 213.166,200.600 213.166 C 200.820 213.166,201.630 212.822,202.400 212.400 C 203.170 211.978,203.620 211.634,203.400 211.634 C 203.180 211.634,202.370 211.978,201.600 212.400 M181.600 213.400 C 180.170 214.149,179.180 214.761,179.400 214.761 C 179.620 214.761,180.970 214.149,182.400 213.400 C 183.830 212.651,184.820 212.039,184.600 212.039 C 184.380 212.039,183.030 212.651,181.600 213.400 M123.200 213.000 C 123.750 213.314,124.380 213.572,124.600 213.572 C 124.820 213.572,124.550 213.314,124.000 213.000 C 123.450 212.686,122.820 212.428,122.600 212.428 C 122.380 212.428,122.650 212.686,123.200 213.000 M285.200 213.000 C 284.650 213.314,284.380 213.572,284.600 213.572 C 284.820 213.572,285.450 213.314,286.000 213.000 C 286.550 212.686,286.820 212.428,286.600 212.428 C 286.380 212.428,285.750 212.686,285.200 213.000 M128.400 215.400 C 128.950 215.714,129.580 215.972,129.800 215.972 C 130.020 215.972,129.750 215.714,129.200 215.400 C 128.650 215.086,128.020 214.828,127.800 214.828 C 127.580 214.828,127.850 215.086,128.400 215.400 M280.000 215.400 C 279.450 215.714,279.180 215.972,279.400 215.972 C 279.620 215.972,280.250 215.714,280.800 215.400 C 281.350 215.086,281.620 214.828,281.400 214.828 C 281.180 214.828,280.550 215.086,280.000 215.400 M105.200 247.800 C 105.200 265.510,105.335 280.000,105.500 280.000 C 105.665 280.000,105.800 265.510,105.800 247.800 C 105.800 230.090,105.665 215.600,105.500 215.600 C 105.335 215.600,105.200 230.090,105.200 247.800 M302.305 247.950 L 302.409 280.299 301.192 280.803 C 300.522 281.081,300.053 281.387,300.150 281.483 C 300.247 281.580,300.882 281.371,301.563 281.019 L 302.800 280.379 302.800 247.990 C 302.800 230.175,302.665 215.600,302.500 215.600 C 302.335 215.600,302.247 230.157,302.305 247.950 M300.000 216.600 C 299.450 216.914,299.180 217.172,299.400 217.172 C 299.620 217.172,300.250 216.914,300.800 216.600 C 301.350 216.286,301.620 216.028,301.400 216.028 C 301.180 216.028,300.550 216.286,300.000 216.600 M132.000 217.000 C 132.550 217.314,133.180 217.572,133.400 217.572 C 133.620 217.572,133.350 217.314,132.800 217.000 C 132.250 216.686,131.620 216.428,131.400 216.428 C 131.180 216.428,131.450 216.686,132.000 217.000 M276.400 217.000 C 275.850 217.314,275.580 217.572,275.800 217.572 C 276.020 217.572,276.650 217.314,277.200 217.000 C 277.750 216.686,278.020 216.428,277.800 216.428 C 277.580 216.428,276.950 216.686,276.400 217.000 M110.000 217.800 C 110.550 218.114,111.180 218.372,111.400 218.372 C 111.620 218.372,111.350 218.114,110.800 217.800 C 110.250 217.486,109.620 217.228,109.400 217.228 C 109.180 217.228,109.450 217.486,110.000 217.800 M294.800 219.000 C 294.250 219.314,293.980 219.572,294.200 219.572 C 294.420 219.572,295.050 219.314,295.600 219.000 C 296.150 218.686,296.420 218.428,296.200 218.428 C 295.980 218.428,295.350 218.686,294.800 219.000 M186.700 219.627 C 185.875 220.063,185.200 220.508,185.200 220.618 C 185.200 220.796,188.359 219.319,188.767 218.951 C 189.227 218.534,188.025 218.928,186.700 219.627 M271.200 219.400 C 270.650 219.714,270.380 219.972,270.600 219.972 C 270.820 219.972,271.450 219.714,272.000 219.400 C 272.550 219.086,272.820 218.828,272.600 218.828 C 272.380 218.828,271.750 219.086,271.200 219.400 M291.200 220.600 C 290.650 220.914,290.380 221.172,290.600 221.172 C 290.820 221.172,291.450 220.914,292.000 220.600 C 292.550 220.286,292.820 220.028,292.600 220.028 C 292.380 220.028,291.750 220.286,291.200 220.600 M140.800 221.000 C 141.350 221.314,141.980 221.572,142.200 221.572 C 142.420 221.572,142.150 221.314,141.600 221.000 C 141.050 220.686,140.420 220.428,140.200 220.428 C 139.980 220.428,140.250 220.686,140.800 221.000 M165.100 221.426 C 164.055 221.970,163.200 222.505,163.200 222.614 C 163.200 222.793,167.160 220.923,167.567 220.552 C 168.062 220.101,166.761 220.562,165.100 221.426 M119.200 221.800 C 119.750 222.114,120.380 222.372,120.600 222.372 C 120.820 222.372,120.550 222.114,120.000 221.800 C 119.450 221.486,118.820 221.228,118.600 221.228 C 118.380 221.228,118.650 221.486,119.200 221.800 M266.000 221.800 C 265.450 222.114,265.180 222.372,265.400 222.372 C 265.620 222.372,266.250 222.114,266.800 221.800 C 267.350 221.486,267.620 221.228,267.400 221.228 C 267.180 221.228,266.550 221.486,266.000 221.800 M286.000 223.000 C 285.450 223.314,285.180 223.572,285.400 223.572 C 285.620 223.572,286.250 223.314,286.800 223.000 C 287.350 222.686,287.620 222.428,287.400 222.428 C 287.180 222.428,286.550 222.686,286.000 223.000 M146.000 223.400 C 146.550 223.714,147.180 223.972,147.400 223.972 C 147.620 223.972,147.350 223.714,146.800 223.400 C 146.250 223.086,145.620 222.828,145.400 222.828 C 145.180 222.828,145.450 223.086,146.000 223.400 M160.000 224.000 C 158.790 224.639,157.980 225.162,158.200 225.162 C 158.420 225.162,159.590 224.639,160.800 224.000 C 162.010 223.361,162.820 222.838,162.600 222.838 C 162.380 222.838,161.210 223.361,160.000 224.000 M262.400 223.400 C 261.850 223.714,261.580 223.972,261.800 223.972 C 262.020 223.972,262.650 223.714,263.200 223.400 C 263.750 223.086,264.020 222.828,263.800 222.828 C 263.580 222.828,262.950 223.086,262.400 223.400 M149.600 225.000 C 150.150 225.314,150.780 225.572,151.000 225.572 C 151.220 225.572,150.950 225.314,150.400 225.000 C 149.850 224.686,149.220 224.428,149.000 224.428 C 148.780 224.428,149.050 224.686,149.600 225.000 M257.200 225.800 C 256.210 226.330,255.580 226.764,255.800 226.764 C 256.020 226.764,257.010 226.330,258.000 225.800 C 258.990 225.270,259.620 224.836,259.400 224.836 C 259.180 224.836,258.190 225.270,257.200 225.800 M128.400 225.800 C 128.950 226.114,129.580 226.372,129.800 226.372 C 130.020 226.372,129.750 226.114,129.200 225.800 C 128.650 225.486,128.020 225.228,127.800 225.228 C 127.580 225.228,127.850 225.486,128.400 225.800 M131.200 227.000 C 131.750 227.314,132.380 227.572,132.600 227.572 C 132.820 227.572,132.550 227.314,132.000 227.000 C 131.450 226.686,130.820 226.428,130.600 226.428 C 130.380 226.428,130.650 226.686,131.200 227.000 M276.400 227.400 C 275.850 227.714,275.580 227.972,275.800 227.972 C 276.020 227.972,276.650 227.714,277.200 227.400 C 277.750 227.086,278.020 226.828,277.800 226.828 C 277.580 226.828,276.950 227.086,276.400 227.400 M252.800 227.800 C 252.250 228.114,251.980 228.372,252.200 228.372 C 252.420 228.372,253.050 228.114,253.600 227.800 C 254.150 227.486,254.420 227.228,254.200 227.228 C 253.980 227.228,253.350 227.486,252.800 227.800 M168.800 228.400 C 168.030 228.822,167.580 229.166,167.800 229.166 C 168.020 229.166,168.830 228.822,169.600 228.400 C 170.370 227.978,170.820 227.634,170.600 227.634 C 170.380 227.634,169.570 227.978,168.800 228.400 M271.600 229.600 C 270.830 230.022,270.380 230.366,270.600 230.366 C 270.820 230.366,271.630 230.022,272.400 229.600 C 273.170 229.178,273.620 228.834,273.400 228.834 C 273.180 228.834,272.370 229.178,271.600 229.600 M137.600 229.800 C 138.150 230.114,138.780 230.372,139.000 230.372 C 139.220 230.372,138.950 230.114,138.400 229.800 C 137.850 229.486,137.220 229.228,137.000 229.228 C 136.780 229.228,137.050 229.486,137.600 229.800 M165.500 230.027 C 164.675 230.463,164.003 231.040,164.006 231.310 C 164.010 231.655,164.099 231.669,164.306 231.356 C 164.468 231.112,165.185 230.612,165.900 230.246 C 166.615 229.879,167.200 229.494,167.200 229.390 C 167.200 229.130,167.195 229.132,165.500 230.027 M247.600 230.200 C 247.050 230.514,246.780 230.772,247.000 230.772 C 247.220 230.772,247.850 230.514,248.400 230.200 C 248.950 229.886,249.220 229.628,249.000 229.628 C 248.780 229.628,248.150 229.886,247.600 230.200 M140.400 231.000 C 140.950 231.314,141.580 231.572,141.800 231.572 C 142.020 231.572,141.750 231.314,141.200 231.000 C 140.650 230.686,140.020 230.428,139.800 230.428 C 139.580 230.428,139.850 230.686,140.400 231.000 M267.600 231.400 C 267.050 231.714,266.780 231.972,267.000 231.972 C 267.220 231.972,267.850 231.714,268.400 231.400 C 268.950 231.086,269.220 230.828,269.000 230.828 C 268.780 230.828,268.150 231.086,267.600 231.400 M243.600 232.000 C 242.830 232.422,242.380 232.766,242.600 232.766 C 242.820 232.766,243.630 232.422,244.400 232.000 C 245.170 231.578,245.620 231.234,245.400 231.234 C 245.180 231.234,244.370 231.578,243.600 232.000 M166.400 232.600 C 166.950 232.914,167.580 233.172,167.800 233.172 C 168.020 233.172,167.750 232.914,167.200 232.600 C 166.650 232.286,166.020 232.028,165.800 232.028 C 165.580 232.028,165.850 232.286,166.400 232.600 M146.800 233.800 C 147.350 234.114,147.980 234.372,148.200 234.372 C 148.420 234.372,148.150 234.114,147.600 233.800 C 147.050 233.486,146.420 233.228,146.200 233.228 C 145.980 233.228,146.250 233.486,146.800 233.800 M262.400 233.800 C 261.850 234.114,261.580 234.372,261.800 234.372 C 262.020 234.372,262.650 234.114,263.200 233.800 C 263.750 233.486,264.020 233.228,263.800 233.228 C 263.580 233.228,262.950 233.486,262.400 233.800 M238.800 234.200 C 238.250 234.514,237.980 234.772,238.200 234.772 C 238.420 234.772,239.050 234.514,239.600 234.200 C 240.150 233.886,240.420 233.628,240.200 233.628 C 239.980 233.628,239.350 233.886,238.800 234.200 M149.600 235.000 C 150.150 235.314,150.780 235.572,151.000 235.572 C 151.220 235.572,150.950 235.314,150.400 235.000 C 149.850 234.686,149.220 234.428,149.000 234.428 C 148.780 234.428,149.050 234.686,149.600 235.000 M258.000 235.800 C 257.010 236.330,256.380 236.764,256.600 236.764 C 256.820 236.764,257.810 236.330,258.800 235.800 C 259.790 235.270,260.420 234.836,260.200 234.836 C 259.980 234.836,258.990 235.270,258.000 235.800 M175.200 236.600 C 175.750 236.914,176.380 237.172,176.600 237.172 C 176.820 237.172,176.550 236.914,176.000 236.600 C 175.450 236.286,174.820 236.028,174.600 236.028 C 174.380 236.028,174.650 236.286,175.200 236.600 M233.600 236.600 C 233.050 236.914,232.780 237.172,233.000 237.172 C 233.220 237.172,233.850 236.914,234.400 236.600 C 234.950 236.286,235.220 236.028,235.000 236.028 C 234.780 236.028,234.150 236.286,233.600 236.600 M253.600 237.800 C 253.050 238.114,252.780 238.372,253.000 238.372 C 253.220 238.372,253.850 238.114,254.400 237.800 C 254.950 237.486,255.220 237.228,255.000 237.228 C 254.780 237.228,254.150 237.486,253.600 237.800 M158.800 239.000 C 159.350 239.314,159.980 239.572,160.200 239.572 C 160.420 239.572,160.150 239.314,159.600 239.000 C 159.050 238.686,158.420 238.428,158.200 238.428 C 157.980 238.428,158.250 238.686,158.800 239.000 M248.400 240.200 C 247.850 240.514,247.580 240.772,247.800 240.772 C 248.020 240.772,248.650 240.514,249.200 240.200 C 249.750 239.886,250.020 239.628,249.800 239.628 C 249.580 239.628,248.950 239.886,248.400 240.200 M224.800 240.600 C 224.250 240.914,223.980 241.172,224.200 241.172 C 224.420 241.172,225.050 240.914,225.600 240.600 C 226.150 240.286,226.420 240.028,226.200 240.028 C 225.980 240.028,225.350 240.286,224.800 240.600 M165.200 241.800 C 165.750 242.114,166.380 242.372,166.600 242.372 C 166.820 242.372,166.550 242.114,166.000 241.800 C 165.450 241.486,164.820 241.228,164.600 241.228 C 164.380 241.228,164.650 241.486,165.200 241.800 M244.800 241.800 C 244.250 242.114,243.980 242.372,244.200 242.372 C 244.420 242.372,245.050 242.114,245.600 241.800 C 246.150 241.486,246.420 241.228,246.200 241.228 C 245.980 241.228,245.350 241.486,244.800 241.800 M168.000 243.000 C 168.550 243.314,169.180 243.572,169.400 243.572 C 169.620 243.572,169.350 243.314,168.800 243.000 C 168.250 242.686,167.620 242.428,167.400 242.428 C 167.180 242.428,167.450 242.686,168.000 243.000 M170.800 244.200 C 171.350 244.514,171.980 244.772,172.200 244.772 C 172.420 244.772,172.150 244.514,171.600 244.200 C 171.050 243.886,170.420 243.628,170.200 243.628 C 169.980 243.628,170.250 243.886,170.800 244.200 M192.800 244.600 C 193.350 244.914,193.980 245.172,194.200 245.172 C 194.420 245.172,194.150 244.914,193.600 244.600 C 193.050 244.286,192.420 244.028,192.200 244.028 C 191.980 244.028,192.250 244.286,192.800 244.600 M238.800 244.600 C 238.250 244.914,237.980 245.172,238.200 245.172 C 238.420 245.172,239.050 244.914,239.600 244.600 C 240.150 244.286,240.420 244.028,240.200 244.028 C 239.980 244.028,239.350 244.286,238.800 244.600 M215.200 245.000 C 214.650 245.314,214.380 245.572,214.600 245.572 C 214.820 245.572,215.450 245.314,216.000 245.000 C 216.550 244.686,216.820 244.428,216.600 244.428 C 216.380 244.428,215.750 244.686,215.200 245.000 M233.600 247.000 C 233.050 247.314,232.780 247.572,233.000 247.572 C 233.220 247.572,233.850 247.314,234.400 247.000 C 234.950 246.686,235.220 246.428,235.000 246.428 C 234.780 246.428,234.150 246.686,233.600 247.000 M180.000 248.200 C 180.550 248.514,181.180 248.772,181.400 248.772 C 181.620 248.772,181.350 248.514,180.800 248.200 C 180.250 247.886,179.620 247.628,179.400 247.628 C 179.180 247.628,179.450 247.886,180.000 248.200 M206.400 249.000 C 205.850 249.314,205.580 249.572,205.800 249.572 C 206.020 249.572,206.650 249.314,207.200 249.000 C 207.750 248.686,208.020 248.428,207.800 248.428 C 207.580 248.428,206.950 248.686,206.400 249.000 M189.200 252.200 C 189.750 252.514,190.380 252.772,190.600 252.772 C 190.820 252.772,190.550 252.514,190.000 252.200 C 189.450 251.886,188.820 251.628,188.600 251.628 C 188.380 251.628,188.650 251.886,189.200 252.200 M192.000 253.400 C 192.550 253.714,193.180 253.972,193.400 253.972 C 193.620 253.972,193.350 253.714,192.800 253.400 C 192.250 253.086,191.620 252.828,191.400 252.828 C 191.180 252.828,191.450 253.086,192.000 253.400 M198.400 256.200 C 198.950 256.514,199.580 256.772,199.800 256.772 C 200.020 256.772,199.750 256.514,199.200 256.200 C 198.650 255.886,198.020 255.628,197.800 255.628 C 197.580 255.628,197.850 255.886,198.400 256.200 M97.705 283.887 C 98.314 283.979,99.214 283.977,99.705 283.882 C 100.197 283.787,99.700 283.711,98.600 283.714 C 97.500 283.717,97.097 283.795,97.705 283.887 M310.505 283.887 C 311.114 283.979,312.014 283.977,312.505 283.882 C 312.997 283.787,312.500 283.711,311.400 283.714 C 310.300 283.717,309.897 283.795,310.505 283.887 M94.000 284.418 C 93.562 284.715,93.724 284.752,94.600 284.556 C 96.071 284.227,96.390 283.998,95.367 284.006 C 94.945 284.009,94.330 284.195,94.000 284.418 M102.000 284.400 C 103.368 284.838,104.419 284.838,103.400 284.400 C 102.960 284.211,102.240 284.062,101.800 284.068 C 101.157 284.077,101.196 284.143,102.000 284.400 M306.800 284.418 C 306.362 284.715,306.524 284.752,307.400 284.556 C 308.871 284.227,309.190 283.998,308.167 284.006 C 307.745 284.009,307.130 284.195,306.800 284.418 M302.800 285.800 C 302.250 286.114,301.980 286.372,302.200 286.372 C 302.420 286.372,303.050 286.114,303.600 285.800 C 304.150 285.486,304.420 285.228,304.200 285.228 C 303.980 285.228,303.350 285.486,302.800 285.800 M88.922 287.029 L 87.800 288.058 89.100 287.154 C 89.815 286.657,90.400 286.193,90.400 286.125 C 90.400 285.809,89.958 286.080,88.922 287.029 M118.998 287.537 C 119.434 288.052,120.153 288.659,120.596 288.886 C 121.445 289.321,121.321 289.187,119.403 287.594 C 118.248 286.635,118.234 286.633,118.998 287.537 M288.929 289.300 C 287.610 290.675,286.317 292.250,286.054 292.800 L 285.577 293.800 286.281 292.800 C 286.669 292.250,288.052 290.675,289.356 289.300 C 290.660 287.925,291.637 286.800,291.527 286.800 C 291.417 286.800,290.248 287.925,288.929 289.300 M322.000 287.725 C 322.000 287.794,322.585 288.379,323.300 289.025 L 324.600 290.200 323.425 288.900 C 322.330 287.688,322.000 287.416,322.000 287.725 M297.185 289.229 L 295.800 290.458 297.300 289.381 C 298.626 288.430,299.057 288.000,298.685 288.000 C 298.622 288.000,297.947 288.553,297.185 289.229 M116.600 292.400 C 117.459 293.280,118.252 294.000,118.362 294.000 C 118.472 294.000,117.859 293.280,117.000 292.400 C 116.141 291.520,115.348 290.800,115.238 290.800 C 115.128 290.800,115.741 291.520,116.600 292.400 M291.523 294.300 C 290.818 295.121,290.290 296.000,290.501 296.000 C 290.583 296.000,291.049 295.460,291.537 294.800 C 292.501 293.496,292.492 293.172,291.523 294.300 M327.029 295.200 C 327.176 295.750,327.464 296.470,327.667 296.800 C 327.925 297.217,327.957 297.095,327.771 296.400 C 327.624 295.850,327.336 295.130,327.133 294.800 C 326.875 294.383,326.843 294.505,327.029 295.200 M119.390 295.980 C 120.130 297.412,120.174 298.845,119.500 299.601 C 119.075 300.078,119.104 300.082,119.700 299.632 C 120.724 298.857,120.119 294.800,118.979 294.800 C 118.869 294.800,119.054 295.331,119.390 295.980 M284.428 298.033 C 284.444 299.005,284.606 300.160,284.790 300.600 C 284.992 301.083,285.038 300.449,284.907 299.000 C 284.645 296.110,284.389 295.593,284.428 298.033 M107.361 297.705 C 108.219 298.249,109.299 298.625,109.761 298.542 C 110.222 298.459,110.374 298.498,110.098 298.630 C 109.549 298.890,109.804 299.600,110.447 299.600 C 110.667 299.600,110.745 299.435,110.621 299.234 C 110.497 299.033,110.621 298.793,110.898 298.700 C 111.314 298.561,109.649 297.894,106.400 296.900 C 106.070 296.799,106.502 297.161,107.361 297.705 M301.600 297.498 C 300.610 297.848,300.035 298.212,300.321 298.307 C 300.706 298.435,300.654 298.633,300.121 299.063 C 299.725 299.383,300.300 299.168,301.400 298.585 C 304.780 296.795,304.863 296.347,301.600 297.498 M289.632 298.024 C 289.614 298.366,289.880 298.996,290.222 299.424 C 290.834 300.188,290.838 300.187,290.476 299.400 C 290.274 298.960,290.008 298.330,289.886 298.000 C 289.693 297.482,289.659 297.485,289.632 298.024 M113.400 299.600 C 113.840 299.789,114.470 299.944,114.800 299.944 C 115.178 299.944,115.104 299.817,114.600 299.600 C 114.160 299.411,113.530 299.256,113.200 299.256 C 112.822 299.256,112.896 299.383,113.400 299.600 M328.695 303.800 C 328.897 309.602,329.106 310.401,329.114 305.400 C 329.117 303.200,328.990 300.950,328.831 300.400 C 328.673 299.850,328.611 301.380,328.695 303.800 M112.000 300.184 C 112.000 300.294,112.720 300.751,113.600 301.200 C 114.480 301.649,115.200 301.926,115.200 301.816 C 115.200 301.706,114.480 301.249,113.600 300.800 C 112.720 300.351,112.000 300.074,112.000 300.184 M116.705 300.283 C 117.202 300.379,117.922 300.375,118.305 300.275 C 118.687 300.175,118.280 300.096,117.400 300.101 C 116.520 300.105,116.207 300.187,116.705 300.283 M291.905 300.283 C 292.402 300.379,293.122 300.375,293.505 300.275 C 293.887 300.175,293.480 300.096,292.600 300.101 C 291.720 300.105,291.407 300.187,291.905 300.283 M127.183 303.700 C 128.841 305.466,129.200 305.784,129.200 305.483 C 129.200 305.419,128.345 304.564,127.300 303.583 L 125.400 301.800 127.183 303.700 M117.400 303.090 C 117.620 303.300,118.520 303.876,119.400 304.370 C 120.280 304.865,120.640 304.970,120.200 304.604 C 119.306 303.861,116.772 302.491,117.400 303.090 M80.901 305.400 C 80.905 306.280,80.987 306.593,81.083 306.095 C 81.179 305.598,81.175 304.878,81.075 304.495 C 80.975 304.113,80.896 304.520,80.901 305.400 M123.200 307.400 C 124.395 308.610,125.463 309.600,125.573 309.600 C 125.683 309.600,124.795 308.610,123.600 307.400 C 122.405 306.190,121.337 305.200,121.227 305.200 C 121.117 305.200,122.005 306.190,123.200 307.400 M286.175 307.700 L 285.000 309.000 286.300 307.825 C 287.015 307.179,287.600 306.594,287.600 306.525 C 287.600 306.216,287.270 306.488,286.175 307.700 M132.081 310.591 C 132.559 311.576,133.019 312.314,133.103 312.230 C 133.284 312.049,131.668 308.800,131.397 308.800 C 131.294 308.800,131.602 309.606,132.081 310.591 M276.844 312.444 C 276.598 313.151,276.466 313.800,276.552 313.885 C 276.638 313.971,276.909 313.462,277.156 312.756 C 277.402 312.049,277.534 311.400,277.448 311.315 C 277.362 311.229,277.091 311.738,276.844 312.444 M154.888 314.111 C 153.520 315.492,152.400 316.813,152.400 317.047 C 152.400 317.534,154.394 318.539,154.718 318.215 C 154.837 318.097,154.758 318.000,154.543 318.000 C 152.413 318.000,152.612 316.834,155.188 314.223 C 156.612 312.781,157.687 311.600,157.577 311.600 C 157.467 311.600,156.257 312.730,154.888 314.111 M164.800 318.400 C 165.466 319.720,166.102 320.800,166.212 320.800 C 166.322 320.800,165.866 319.720,165.200 318.400 C 164.534 317.080,163.898 316.000,163.788 316.000 C 163.678 316.000,164.134 317.080,164.800 318.400 M83.600 317.353 C 83.600 317.782,84.790 320.000,85.021 320.000 C 85.131 320.000,84.923 319.415,84.559 318.700 C 83.817 317.240,83.600 316.936,83.600 317.353 M129.293 319.200 C 129.293 319.970,129.375 320.285,129.476 319.900 C 129.576 319.515,129.576 318.885,129.476 318.500 C 129.375 318.115,129.293 318.430,129.293 319.200 M275.271 321.200 C 275.276 323.070,275.412 325.050,275.574 325.600 C 275.736 326.150,275.794 324.800,275.703 322.600 C 275.493 317.523,275.261 316.770,275.271 321.200 M177.389 321.300 L 174.600 324.200 177.459 321.451 C 179.323 319.659,180.493 318.811,180.821 319.013 C 181.147 319.214,181.223 319.161,181.038 318.862 C 180.566 318.099,180.292 318.282,177.389 321.300 M280.509 321.200 C 280.509 322.190,280.587 322.595,280.682 322.100 C 280.778 321.605,280.778 320.795,280.682 320.300 C 280.587 319.805,280.509 320.210,280.509 321.200 M155.911 332.400 C 155.850 339.220,155.935 344.800,156.100 344.800 C 156.265 344.800,156.400 339.220,156.400 332.400 C 156.400 325.580,156.315 320.000,156.211 320.000 C 156.107 320.000,155.972 325.580,155.911 332.400 M166.434 321.400 C 166.434 321.620,166.778 322.430,167.200 323.200 C 167.622 323.970,167.966 324.420,167.966 324.200 C 167.966 323.980,167.622 323.170,167.200 322.400 C 166.778 321.630,166.434 321.180,166.434 321.400 M163.762 330.600 C 163.762 334.120,163.824 335.506,163.898 333.681 C 163.972 331.856,163.972 328.976,163.897 327.281 C 163.822 325.586,163.761 327.080,163.762 330.600 M90.600 327.600 C 91.683 328.700,92.660 329.600,92.770 329.600 C 92.880 329.600,92.083 328.700,91.000 327.600 C 89.917 326.500,88.940 325.600,88.830 325.600 C 88.720 325.600,89.517 326.500,90.600 327.600 M281.228 326.200 C 281.228 326.420,281.486 327.050,281.800 327.600 C 282.114 328.150,282.372 328.420,282.372 328.200 C 282.372 327.980,282.114 327.350,281.800 326.800 C 281.486 326.250,281.228 325.980,281.228 326.200 M176.311 340.707 C 176.398 350.621,176.312 353.409,175.911 353.663 C 175.537 353.901,175.588 353.989,176.100 353.994 C 176.840 354.000,177.233 328.715,176.500 328.262 C 176.335 328.159,176.250 333.760,176.311 340.707 M282.714 329.404 C 282.941 329.847,283.548 330.566,284.063 331.002 C 284.967 331.766,284.965 331.752,284.006 330.597 C 282.413 328.679,282.279 328.555,282.714 329.404 M276.800 329.353 C 276.800 329.782,277.990 332.000,278.221 332.000 C 278.331 332.000,278.123 331.415,277.759 330.700 C 277.017 329.240,276.800 328.936,276.800 329.353 M124.975 332.100 L 123.800 333.400 125.100 332.225 C 126.312 331.130,126.584 330.800,126.275 330.800 C 126.206 330.800,125.621 331.385,124.975 332.100 M130.383 333.700 C 129.640 334.635,129.348 335.146,129.735 334.836 C 130.463 334.251,132.177 332.000,131.894 332.000 C 131.806 332.000,131.126 332.765,130.383 333.700 M184.267 332.267 C 184.120 332.413,184.000 338.169,184.000 345.056 L 184.000 357.579 185.300 358.209 C 186.448 358.765,186.509 358.766,185.824 358.219 C 185.396 357.879,184.901 357.600,184.724 357.600 C 184.149 357.600,184.324 332.497,184.900 332.265 C 185.179 332.152,185.209 332.049,184.967 332.032 C 184.728 332.014,184.413 332.120,184.267 332.267 M286.198 333.137 C 286.634 333.652,287.353 334.259,287.796 334.486 C 288.645 334.921,288.521 334.787,286.603 333.194 C 285.448 332.235,285.434 332.233,286.198 333.137 M278.804 332.917 C 278.798 333.404,282.422 337.166,283.788 338.091 C 284.454 338.542,284.062 338.069,282.915 337.038 C 281.768 336.007,280.375 334.587,279.819 333.882 C 279.264 333.177,278.807 332.743,278.804 332.917 M102.000 335.600 C 102.770 336.022,103.580 336.366,103.800 336.366 C 104.020 336.366,103.570 336.022,102.800 335.600 C 102.030 335.178,101.220 334.834,101.000 334.834 C 100.780 334.834,101.230 335.178,102.000 335.600 M125.814 338.046 C 123.713 339.626,123.516 339.887,125.127 338.962 C 126.262 338.310,128.047 336.745,127.562 336.827 C 127.473 336.842,126.686 337.391,125.814 338.046 M110.300 337.889 C 111.015 337.978,112.185 337.978,112.900 337.889 C 113.615 337.801,113.030 337.728,111.600 337.728 C 110.170 337.728,109.585 337.801,110.300 337.889 M297.100 337.889 C 297.815 337.978,298.985 337.978,299.700 337.889 C 300.415 337.801,299.830 337.728,298.400 337.728 C 296.970 337.728,296.385 337.801,297.100 337.889 M163.751 342.400 C 163.751 344.930,163.816 345.965,163.896 344.700 C 163.975 343.435,163.975 341.365,163.896 340.100 C 163.816 338.835,163.751 339.870,163.751 342.400 M109.776 343.413 C 110.651 344.074,111.368 344.195,111.013 343.621 C 110.881 343.407,111.697 343.178,112.890 343.095 C 114.621 342.974,114.462 342.937,112.000 342.887 C 109.283 342.831,109.073 342.881,109.776 343.413 M151.600 344.790 C 151.600 346.641,153.396 348.737,154.250 347.883 C 154.347 347.787,153.880 347.482,153.213 347.205 C 152.117 346.752,152.000 346.529,152.000 344.909 C 152.000 343.359,152.096 343.153,152.700 343.396 C 154.228 344.009,154.552 344.026,153.600 343.442 C 151.915 342.408,151.600 342.621,151.600 344.790 M296.709 343.093 C 297.649 343.178,298.314 343.416,298.186 343.623 C 297.805 344.239,298.660 344.051,299.200 343.400 C 299.634 342.877,299.396 342.809,297.349 342.870 C 295.343 342.930,295.250 342.962,296.709 343.093 M113.200 345.000 C 113.750 345.314,114.380 345.572,114.600 345.572 C 114.820 345.572,114.550 345.314,114.000 345.000 C 113.450 344.686,112.820 344.428,112.600 344.428 C 112.380 344.428,112.650 344.686,113.200 345.000 M295.200 345.000 C 294.650 345.314,294.380 345.572,294.600 345.572 C 294.820 345.572,295.450 345.314,296.000 345.000 C 296.550 344.686,296.820 344.428,296.600 344.428 C 296.380 344.428,295.750 344.686,295.200 345.000 M290.000 347.400 C 289.450 347.714,289.180 347.972,289.400 347.972 C 289.620 347.972,290.250 347.714,290.800 347.400 C 291.350 347.086,291.620 346.828,291.400 346.828 C 291.180 346.828,290.550 347.086,290.000 347.400 M122.000 349.000 C 122.550 349.314,123.180 349.572,123.400 349.572 C 123.620 349.572,123.350 349.314,122.800 349.000 C 122.250 348.686,121.620 348.428,121.400 348.428 C 121.180 348.428,121.450 348.686,122.000 349.000 M158.000 349.800 C 158.550 350.114,159.180 350.372,159.400 350.372 C 159.620 350.372,159.350 350.114,158.800 349.800 C 158.250 349.486,157.620 349.228,157.400 349.228 C 157.180 349.228,157.450 349.486,158.000 349.800 M284.400 350.000 C 283.630 350.422,283.180 350.766,283.400 350.766 C 283.620 350.766,284.430 350.422,285.200 350.000 C 285.970 349.578,286.420 349.234,286.200 349.234 C 285.980 349.234,285.170 349.578,284.400 350.000 M167.600 350.200 C 168.150 350.514,168.780 350.772,169.000 350.772 C 169.220 350.772,168.950 350.514,168.400 350.200 C 167.850 349.886,167.220 349.628,167.000 349.628 C 166.780 349.628,167.050 349.886,167.600 350.200 M127.200 351.400 C 127.750 351.714,128.380 351.972,128.600 351.972 C 128.820 351.972,128.550 351.714,128.000 351.400 C 127.450 351.086,126.820 350.828,126.600 350.828 C 126.380 350.828,126.650 351.086,127.200 351.400 M280.400 351.800 C 279.410 352.330,278.780 352.764,279.000 352.764 C 279.220 352.764,280.210 352.330,281.200 351.800 C 282.190 351.270,282.820 350.836,282.600 350.836 C 282.380 350.836,281.390 351.270,280.400 351.800 M171.200 351.800 C 171.750 352.114,172.380 352.372,172.600 352.372 C 172.820 352.372,172.550 352.114,172.000 351.800 C 171.450 351.486,170.820 351.228,170.600 351.228 C 170.380 351.228,170.650 351.486,171.200 351.800 M163.200 352.200 C 163.750 352.514,164.380 352.772,164.600 352.772 C 164.820 352.772,164.550 352.514,164.000 352.200 C 163.450 351.886,162.820 351.628,162.600 351.628 C 162.380 351.628,162.650 351.886,163.200 352.200 M130.800 353.000 C 131.350 353.314,131.980 353.572,132.200 353.572 C 132.420 353.572,132.150 353.314,131.600 353.000 C 131.050 352.686,130.420 352.428,130.200 352.428 C 129.980 352.428,130.250 352.686,130.800 353.000 M166.800 353.800 C 167.350 354.114,167.980 354.372,168.200 354.372 C 168.420 354.372,168.150 354.114,167.600 353.800 C 167.050 353.486,166.420 353.228,166.200 353.228 C 165.980 353.228,166.250 353.486,166.800 353.800 M275.200 354.200 C 274.650 354.514,274.380 354.772,274.600 354.772 C 274.820 354.772,275.450 354.514,276.000 354.200 C 276.550 353.886,276.820 353.628,276.600 353.628 C 276.380 353.628,275.750 353.886,275.200 354.200 M270.000 356.600 C 269.450 356.914,269.180 357.172,269.400 357.172 C 269.620 357.172,270.250 356.914,270.800 356.600 C 271.350 356.286,271.620 356.028,271.400 356.028 C 271.180 356.028,270.550 356.286,270.000 356.600 M266.400 358.200 C 265.850 358.514,265.580 358.772,265.800 358.772 C 266.020 358.772,266.650 358.514,267.200 358.200 C 267.750 357.886,268.020 357.628,267.800 357.628 C 267.580 357.628,266.950 357.886,266.400 358.200 M178.000 359.000 C 178.550 359.314,179.180 359.572,179.400 359.572 C 179.620 359.572,179.350 359.314,178.800 359.000 C 178.250 358.686,177.620 358.428,177.400 358.428 C 177.180 358.428,177.450 358.686,178.000 359.000 M146.400 359.800 C 146.950 360.114,147.580 360.372,147.800 360.372 C 148.020 360.372,147.750 360.114,147.200 359.800 C 146.650 359.486,146.020 359.228,145.800 359.228 C 145.580 359.228,145.850 359.486,146.400 359.800 M188.316 359.699 C 188.552 359.983,188.816 361.022,188.903 362.008 L 189.060 363.800 189.130 361.743 C 189.184 360.161,189.048 359.627,188.543 359.434 C 188.041 359.241,187.987 359.303,188.316 359.699 M261.200 360.600 C 260.650 360.914,260.380 361.172,260.600 361.172 C 260.820 361.172,261.450 360.914,262.000 360.600 C 262.550 360.286,262.820 360.028,262.600 360.028 C 262.380 360.028,261.750 360.286,261.200 360.600 M155.600 363.800 C 156.150 364.114,156.780 364.372,157.000 364.372 C 157.220 364.372,156.950 364.114,156.400 363.800 C 155.850 363.486,155.220 363.228,155.000 363.228 C 154.780 363.228,155.050 363.486,155.600 363.800 M252.400 364.600 C 251.850 364.914,251.580 365.172,251.800 365.172 C 252.020 365.172,252.650 364.914,253.200 364.600 C 253.750 364.286,254.020 364.028,253.800 364.028 C 253.580 364.028,252.950 364.286,252.400 364.600 M158.400 365.000 C 158.950 365.314,159.580 365.572,159.800 365.572 C 160.020 365.572,159.750 365.314,159.200 365.000 C 158.650 364.686,158.020 364.428,157.800 364.428 C 157.580 364.428,157.850 364.686,158.400 365.000 M161.200 366.200 C 161.750 366.514,162.380 366.772,162.600 366.772 C 162.820 366.772,162.550 366.514,162.000 366.200 C 161.450 365.886,160.820 365.628,160.600 365.628 C 160.380 365.628,160.650 365.886,161.200 366.200 M246.400 367.400 C 245.850 367.714,245.580 367.972,245.800 367.972 C 246.020 367.972,246.650 367.714,247.200 367.400 C 247.750 367.086,248.020 366.828,247.800 366.828 C 247.580 366.828,246.950 367.086,246.400 367.400 M167.600 369.000 C 168.150 369.314,168.780 369.572,169.000 369.572 C 169.220 369.572,168.950 369.314,168.400 369.000 C 167.850 368.686,167.220 368.428,167.000 368.428 C 166.780 368.428,167.050 368.686,167.600 369.000 M242.800 369.000 C 242.250 369.314,241.980 369.572,242.200 369.572 C 242.420 369.572,243.050 369.314,243.600 369.000 C 244.150 368.686,244.420 368.428,244.200 368.428 C 243.980 368.428,243.350 368.686,242.800 369.000 M170.400 370.200 C 170.950 370.514,171.580 370.772,171.800 370.772 C 172.020 370.772,171.750 370.514,171.200 370.200 C 170.650 369.886,170.020 369.628,169.800 369.628 C 169.580 369.628,169.850 369.886,170.400 370.200 M173.200 371.400 C 173.750 371.714,174.380 371.972,174.600 371.972 C 174.820 371.972,174.550 371.714,174.000 371.400 C 173.450 371.086,172.820 370.828,172.600 370.828 C 172.380 370.828,172.650 371.086,173.200 371.400 M237.600 371.400 C 237.050 371.714,236.780 371.972,237.000 371.972 C 237.220 371.972,237.850 371.714,238.400 371.400 C 238.950 371.086,239.220 370.828,239.000 370.828 C 238.780 370.828,238.150 371.086,237.600 371.400 M176.800 373.000 C 177.350 373.314,177.980 373.572,178.200 373.572 C 178.420 373.572,178.150 373.314,177.600 373.000 C 177.050 372.686,176.420 372.428,176.200 372.428 C 175.980 372.428,176.250 372.686,176.800 373.000 M233.200 373.400 C 232.210 373.930,231.580 374.364,231.800 374.364 C 232.020 374.364,233.010 373.930,234.000 373.400 C 234.990 372.870,235.620 372.436,235.400 372.436 C 235.180 372.436,234.190 372.870,233.200 373.400 M179.600 374.200 C 180.150 374.514,180.780 374.772,181.000 374.772 C 181.220 374.772,180.950 374.514,180.400 374.200 C 179.850 373.886,179.220 373.628,179.000 373.628 C 178.780 373.628,179.050 373.886,179.600 374.200 M182.400 375.400 C 182.950 375.714,183.580 375.972,183.800 375.972 C 184.020 375.972,183.750 375.714,183.200 375.400 C 182.650 375.086,182.020 374.828,181.800 374.828 C 181.580 374.828,181.850 375.086,182.400 375.400 M228.800 375.400 C 228.250 375.714,227.980 375.972,228.200 375.972 C 228.420 375.972,229.050 375.714,229.600 375.400 C 230.150 375.086,230.420 374.828,230.200 374.828 C 229.980 374.828,229.350 375.086,228.800 375.400 M188.800 378.200 C 189.350 378.514,189.980 378.772,190.200 378.772 C 190.420 378.772,190.150 378.514,189.600 378.200 C 189.050 377.886,188.420 377.628,188.200 377.628 C 187.980 377.628,188.250 377.886,188.800 378.200 M191.600 379.400 C 192.150 379.714,192.780 379.972,193.000 379.972 C 193.220 379.972,192.950 379.714,192.400 379.400 C 191.850 379.086,191.220 378.828,191.000 378.828 C 190.780 378.828,191.050 379.086,191.600 379.400 M219.600 379.600 C 218.830 380.022,218.380 380.366,218.600 380.366 C 218.820 380.366,219.630 380.022,220.400 379.600 C 221.170 379.178,221.620 378.834,221.400 378.834 C 221.180 378.834,220.370 379.178,219.600 379.600 M214.800 381.800 C 213.810 382.330,213.180 382.764,213.400 382.764 C 213.620 382.764,214.610 382.330,215.600 381.800 C 216.590 381.270,217.220 380.836,217.000 380.836 C 216.780 380.836,215.790 381.270,214.800 381.800 M198.000 382.200 C 198.550 382.514,199.180 382.772,199.400 382.772 C 199.620 382.772,199.350 382.514,198.800 382.200 C 198.250 381.886,197.620 381.628,197.400 381.628 C 197.180 381.628,197.450 381.886,198.000 382.200 M211.205 383.379 C 210.658 383.682,210.073 383.845,209.905 383.741 C 209.737 383.638,209.600 383.743,209.600 383.976 C 209.600 384.209,209.735 384.392,209.900 384.383 C 210.389 384.356,213.037 382.834,212.600 382.831 C 212.380 382.830,211.752 383.076,211.205 383.379 " stroke="none" fill="#997a68" fill-rule="evenodd"></path><path id="path3" d="M168.645 51.528 C 168.533 51.708,168.973 51.777,169.621 51.682 C 170.270 51.587,170.800 51.440,170.800 51.355 C 170.800 51.050,168.843 51.207,168.645 51.528 M175.505 52.283 C 176.002 52.379,176.722 52.375,177.105 52.275 C 177.487 52.175,177.080 52.096,176.200 52.101 C 175.320 52.105,175.007 52.187,175.505 52.283 M182.700 52.282 C 183.195 52.378,184.005 52.378,184.500 52.282 C 184.995 52.187,184.590 52.109,183.600 52.109 C 182.610 52.109,182.205 52.187,182.700 52.282 M161.693 68.000 C 161.693 68.770,161.775 69.085,161.876 68.700 C 161.976 68.315,161.976 67.685,161.876 67.300 C 161.775 66.915,161.693 67.230,161.693 68.000 M215.375 70.900 L 214.200 72.200 215.500 71.025 C 216.215 70.379,216.800 69.794,216.800 69.725 C 216.800 69.416,216.470 69.688,215.375 70.900 M172.975 71.700 L 171.800 73.000 173.100 71.825 C 174.312 70.730,174.584 70.400,174.275 70.400 C 174.206 70.400,173.621 70.985,172.975 71.700 M157.314 78.200 C 157.317 79.300,157.395 79.703,157.487 79.095 C 157.579 78.486,157.577 77.586,157.482 77.095 C 157.387 76.603,157.311 77.100,157.314 78.200 M177.667 80.300 L 176.165 81.800 177.582 80.601 C 178.362 79.942,179.171 79.267,179.380 79.101 C 179.589 78.935,179.627 78.800,179.465 78.800 C 179.302 78.800,178.493 79.475,177.667 80.300 M187.264 82.667 C 187.229 83.364,187.096 84.264,186.970 84.667 C 186.753 85.359,186.765 85.360,187.194 84.691 C 187.445 84.302,187.577 83.402,187.489 82.691 L 187.328 81.400 187.264 82.667 M182.305 87.083 C 182.802 87.179,183.522 87.175,183.905 87.075 C 184.287 86.975,183.880 86.896,183.000 86.901 C 182.120 86.905,181.807 86.987,182.305 87.083 M220.705 87.083 C 221.202 87.179,221.922 87.175,222.305 87.075 C 222.687 86.975,222.280 86.896,221.400 86.901 C 220.520 86.905,220.207 86.987,220.705 87.083 M193.445 99.528 C 193.333 99.708,193.773 99.777,194.421 99.682 C 195.070 99.587,195.600 99.440,195.600 99.355 C 195.600 99.050,193.643 99.207,193.445 99.528 M201.107 104.690 C 201.826 104.779,202.906 104.777,203.507 104.686 C 204.108 104.595,203.520 104.522,202.200 104.524 C 200.880 104.526,200.388 104.601,201.107 104.690 M201.505 117.083 C 202.002 117.179,202.722 117.175,203.105 117.075 C 203.487 116.975,203.080 116.896,202.200 116.901 C 201.320 116.905,201.007 116.987,201.505 117.083 M200.900 133.487 C 201.505 133.578,202.495 133.578,203.100 133.487 C 203.705 133.395,203.210 133.320,202.000 133.320 C 200.790 133.320,200.295 133.395,200.900 133.487 M200.000 319.680 C 199.890 354.594,199.936 383.024,200.101 382.859 C 200.267 382.693,200.357 354.127,200.301 319.379 L 200.200 256.200 200.000 319.680 M209.385 258.100 C 209.280 258.375,209.241 286.950,209.297 321.600 L 209.400 384.600 209.600 321.100 C 209.710 286.175,209.749 257.600,209.687 257.600 C 209.626 257.600,209.489 257.825,209.385 258.100 M292.800 292.600 C 291.828 293.590,291.123 294.400,291.233 294.400 C 291.343 294.400,292.228 293.590,293.200 292.600 C 294.172 291.610,294.877 290.800,294.767 290.800 C 294.657 290.800,293.772 291.610,292.800 292.600 M299.412 298.780 C 299.265 299.018,299.022 299.143,298.872 299.057 C 298.723 298.971,298.250 299.027,297.821 299.183 C 297.076 299.454,297.079 299.475,297.903 299.690 C 298.791 299.923,300.399 299.066,299.939 298.606 C 299.797 298.463,299.560 298.542,299.412 298.780 M110.939 299.390 C 111.345 299.696,111.938 299.845,112.256 299.723 C 113.013 299.433,112.835 299.292,111.391 299.042 C 110.303 298.854,110.264 298.884,110.939 299.390 M282.575 304.100 L 281.400 305.400 282.700 304.225 C 283.415 303.579,284.000 302.994,284.000 302.925 C 284.000 302.616,283.670 302.888,282.575 304.100 M126.800 303.725 C 126.800 303.794,127.385 304.379,128.100 305.025 L 129.400 306.200 128.225 304.900 C 127.130 303.688,126.800 303.416,126.800 303.725 M158.575 310.500 L 157.400 311.800 158.700 310.625 C 159.912 309.530,160.184 309.200,159.875 309.200 C 159.806 309.200,159.221 309.785,158.575 310.500 M134.524 321.400 C 134.526 322.720,134.601 323.212,134.690 322.493 C 134.779 321.774,134.777 320.694,134.686 320.093 C 134.595 319.492,134.522 320.080,134.524 321.400 M156.400 332.080 C 156.290 339.275,156.338 345.023,156.506 344.855 C 156.674 344.686,156.764 338.800,156.705 331.774 L 156.599 319.000 156.400 332.080 M174.378 324.700 L 173.000 326.200 174.500 324.822 C 175.896 323.538,176.184 323.200,175.878 323.200 C 175.812 323.200,175.137 323.875,174.378 324.700 M319.381 327.700 L 317.800 329.400 319.500 327.819 C 321.081 326.348,321.384 326.000,321.081 326.000 C 321.016 326.000,320.251 326.765,319.381 327.700 M176.711 340.907 C 176.798 350.981,176.712 353.809,176.311 354.063 C 175.937 354.301,175.988 354.389,176.500 354.394 C 177.240 354.400,177.633 328.715,176.900 328.262 C 176.735 328.159,176.650 333.850,176.711 340.907 M111.300 338.276 C 111.685 338.376,112.315 338.376,112.700 338.276 C 113.085 338.175,112.770 338.093,112.000 338.093 C 111.230 338.093,110.915 338.175,111.300 338.276 M297.905 338.283 C 298.402 338.379,299.122 338.375,299.505 338.275 C 299.887 338.175,299.480 338.096,298.600 338.101 C 297.720 338.105,297.407 338.187,297.905 338.283 " stroke="none" fill="#6e647a" fill-rule="evenodd"></path></g></svg>